<svg xmlns="http://www.w3.org/2000/svg" xmlns:xlink="http://www.w3.org/1999/xlink" width="500" zoomAndPan="magnify" viewBox="0 0 375 374.999991" height="500" preserveAspectRatio="xMidYMid meet" version="1.0"><defs><g/><clipPath id="9582b01b9d"><path d="M 80 148 L 263 148 L 263 339 L 80 339 Z M 80 148 " clip-rule="nonzero"/></clipPath><clipPath id="e21a237a3b"><path d="M 232.800781 146.941406 L 263.722656 176.292969 L 100.113281 348.652344 L 69.191406 319.300781 Z M 232.800781 146.941406 " clip-rule="nonzero"/></clipPath><clipPath id="5036d853ac"><path d="M 232.800781 146.941406 L 263.722656 176.292969 L 100.113281 348.652344 L 69.191406 319.300781 Z M 232.800781 146.941406 " clip-rule="nonzero"/></clipPath><clipPath id="956c3bf284"><path d="M 147 173 L 305 173 L 305 338 L 147 338 Z M 147 173 " clip-rule="nonzero"/></clipPath><clipPath id="b9a4ab5811"><path d="M 128.058594 202.011719 L 177.855469 154.703125 L 325.765625 310.394531 L 275.96875 357.703125 Z M 128.058594 202.011719 " clip-rule="nonzero"/></clipPath><clipPath id="46689c53dc"><path d="M 128.058594 202.011719 L 177.855469 154.703125 L 325.765625 310.394531 L 275.96875 357.703125 Z M 128.058594 202.011719 " clip-rule="nonzero"/></clipPath><clipPath id="a28cfd428b"><path d="M 25 36 L 183 36 L 183 201 L 25 201 Z M 25 36 " clip-rule="nonzero"/></clipPath><clipPath id="af8d70dd60"><path d="M 6.039062 64.363281 L 55.835938 17.054688 L 203.746094 172.742188 L 153.949219 220.050781 Z M 6.039062 64.363281 " clip-rule="nonzero"/></clipPath><clipPath id="c3b5256e6f"><path d="M 6.039062 64.363281 L 55.835938 17.054688 L 203.746094 172.742188 L 153.949219 220.050781 Z M 6.039062 64.363281 " clip-rule="nonzero"/></clipPath><clipPath id="50c729f386"><path d="M 185 36 L 368 36 L 368 227 L 185 227 Z M 185 36 " clip-rule="nonzero"/></clipPath><clipPath id="dc069e0655"><path d="M 337.898438 35.203125 L 368.820312 64.554688 L 205.214844 236.910156 L 174.292969 207.558594 Z M 337.898438 35.203125 " clip-rule="nonzero"/></clipPath><clipPath id="e5debf072c"><path d="M 337.898438 35.203125 L 368.820312 64.554688 L 205.214844 236.910156 L 174.292969 207.558594 Z M 337.898438 35.203125 " clip-rule="nonzero"/></clipPath><clipPath id="64edef2e64"><path d="M 91.292969 118.675781 L 292.644531 118.675781 L 292.644531 320.027344 L 91.292969 320.027344 Z M 91.292969 118.675781 " clip-rule="nonzero"/></clipPath><clipPath id="5bcd82d372"><path d="M 191.96875 118.675781 C 136.367188 118.675781 91.292969 163.75 91.292969 219.351562 C 91.292969 274.953125 136.367188 320.027344 191.96875 320.027344 C 247.570312 320.027344 292.644531 274.953125 292.644531 219.351562 C 292.644531 163.75 247.570312 118.675781 191.96875 118.675781 " clip-rule="nonzero"/></clipPath><clipPath id="2ddd502f7f"><path d="M 63.367188 90.75 L 320.746094 90.75 L 320.746094 348.128906 L 63.367188 348.128906 Z M 63.367188 90.75 " clip-rule="nonzero"/></clipPath><clipPath id="36c2cc209d"><path d="M 120.070312 119 L 263 119 L 263 214.996094 L 120.070312 214.996094 Z M 120.070312 119 " clip-rule="nonzero"/></clipPath><clipPath id="771c743112"><path d="M 54.832031 219.351562 L 328.792969 219.351562 L 328.792969 297.511719 L 54.832031 297.511719 Z M 54.832031 219.351562 " clip-rule="nonzero"/></clipPath><clipPath id="7d334b91d0"><path d="M 120.269531 286.199219 L 136.0625 286.199219 L 136.0625 302.777344 L 120.269531 302.777344 Z M 120.269531 286.199219 " clip-rule="nonzero"/></clipPath><clipPath id="166b5c359f"><path d="M 247.90625 286.199219 L 263.695312 286.199219 L 263.695312 302.777344 L 247.90625 302.777344 Z M 247.90625 286.199219 " clip-rule="nonzero"/></clipPath></defs><g clip-path="url(#9582b01b9d)"><g clip-path="url(#e21a237a3b)"><g clip-path="url(#5036d853ac)"><path fill="#000000" d="M 176.441406 226.460938 C 181.011719 221.644531 182.214844 214.972656 179.945312 209.757812 C 178.660156 206.820312 179.421875 203.175781 181.855469 200.609375 L 231.054688 148.78125 C 232.007812 147.773438 233.664062 147.792969 234.75 148.824219 C 234.75 148.824219 234.753906 148.828125 234.753906 148.828125 C 235.839844 149.859375 235.941406 151.511719 234.988281 152.515625 L 197.3125 192.207031 C 196.671875 192.882812 196.328125 193.78125 196.351562 194.707031 C 196.375 195.632812 196.761719 196.511719 197.433594 197.144531 C 197.4375 197.148438 197.4375 197.148438 197.4375 197.148438 C 198.105469 197.785156 199.003906 198.128906 199.925781 198.101562 C 200.851562 198.078125 201.734375 197.6875 202.375 197.011719 C 211.027344 187.894531 240.050781 157.320312 240.050781 157.320312 C 241.003906 156.316406 242.660156 156.332031 243.75 157.367188 C 244.835938 158.394531 244.941406 160.050781 243.984375 161.054688 L 206.308594 200.75 C 205.667969 201.421875 205.324219 202.320312 205.34375 203.246094 C 205.367188 204.171875 205.757812 205.046875 206.429688 205.6875 C 207.101562 206.320312 207.996094 206.667969 208.921875 206.640625 C 209.851562 206.617188 210.726562 206.226562 211.367188 205.550781 C 220.019531 196.433594 249.042969 165.859375 249.042969 165.859375 C 250 164.851562 251.65625 164.871094 252.742188 165.902344 C 253.832031 166.9375 253.933594 168.589844 252.980469 169.59375 L 215.304688 209.285156 C 214.664062 209.960938 214.320312 210.859375 214.34375 211.785156 C 214.363281 212.710938 214.753906 213.585938 215.425781 214.222656 C 216.097656 214.863281 216.992188 215.207031 217.917969 215.179688 C 218.84375 215.15625 219.71875 214.761719 220.359375 214.085938 C 229.015625 204.972656 258.039062 174.394531 258.039062 174.394531 C 258.992188 173.390625 260.652344 173.410156 261.738281 174.441406 C 262.824219 175.472656 262.929688 177.125 261.972656 178.132812 L 215.917969 226.648438 L 212.765625 229.972656 C 210.332031 232.539062 206.734375 233.488281 203.734375 232.359375 C 198.410156 230.367188 191.820312 231.914062 187.253906 236.722656 L 120.488281 311.128906 C 120.488281 311.128906 108.078125 325.441406 100.078125 334.667969 C 98.351562 336.660156 95.890625 337.863281 93.261719 337.996094 C 90.636719 338.128906 88.070312 337.179688 86.164062 335.371094 C 85.179688 334.433594 84.171875 333.476562 83.183594 332.542969 C 81.277344 330.734375 80.199219 328.222656 80.191406 325.589844 C 80.1875 322.957031 81.257812 320.433594 83.160156 318.605469 C 91.964844 310.140625 105.613281 297.007812 105.613281 297.007812 Z M 176.441406 226.460938 " fill-opacity="1" fill-rule="evenodd"/></g></g></g><g clip-path="url(#956c3bf284)"><g clip-path="url(#b9a4ab5811)"><g clip-path="url(#46689c53dc)"><path fill="#000000" d="M 206.71875 253.339844 C 195.496094 258.929688 181.785156 258.558594 168.550781 244.628906 C 150.839844 225.984375 140.636719 190.058594 152.957031 178.355469 C 165.277344 166.652344 200.628906 178.679688 218.34375 197.324219 C 231.5625 211.242188 231.246094 224.933594 225.113281 235.851562 C 224.238281 240.097656 225.550781 244.917969 229.007812 248.558594 L 281.648438 300.925781 C 281.648438 300.925781 294.0625 312.574219 302.121094 320.132812 C 303.871094 321.773438 304.867188 324.066406 304.871094 326.472656 C 304.875 328.875 303.882812 331.175781 302.140625 332.835938 L 299.59375 335.253906 C 297.847656 336.910156 295.5 337.78125 293.101562 337.65625 C 290.699219 337.523438 288.460938 336.414062 286.90625 334.582031 C 279.773438 326.144531 268.785156 313.144531 268.785156 313.144531 L 219.183594 257.894531 C 215.734375 254.265625 211 252.699219 206.71875 253.339844 Z M 206.71875 253.339844 " fill-opacity="1" fill-rule="evenodd"/></g></g></g><g clip-path="url(#a28cfd428b)"><g clip-path="url(#af8d70dd60)"><g clip-path="url(#c3b5256e6f)"><path fill="#000000" d="M 84.699219 115.691406 C 73.476562 121.277344 59.765625 120.910156 46.53125 106.980469 C 28.820312 88.335938 18.621094 52.40625 30.9375 40.707031 C 43.257812 29 78.613281 41.03125 96.324219 59.675781 C 109.542969 73.589844 109.226562 87.28125 103.09375 98.199219 C 102.21875 102.449219 103.535156 107.269531 106.988281 110.90625 L 159.628906 163.273438 C 159.628906 163.273438 172.042969 174.921875 180.101562 182.484375 C 181.851562 184.125 182.847656 186.417969 182.851562 188.824219 C 182.855469 191.226562 181.867188 193.527344 180.121094 195.183594 L 177.574219 197.601562 C 175.828125 199.261719 173.480469 200.132812 171.082031 200.003906 C 168.679688 199.875 166.441406 198.761719 164.886719 196.929688 C 157.757812 188.492188 146.765625 175.496094 146.765625 175.496094 L 97.164062 120.242188 C 93.71875 116.613281 88.980469 115.050781 84.699219 115.691406 Z M 84.699219 115.691406 " fill-opacity="1" fill-rule="evenodd"/></g></g></g><g clip-path="url(#50c729f386)"><g clip-path="url(#dc069e0655)"><g clip-path="url(#e5debf072c)"><path fill="#000000" d="M 281.539062 114.722656 C 286.109375 109.90625 287.3125 103.234375 285.042969 98.019531 C 283.761719 95.082031 284.519531 91.4375 286.953125 88.871094 L 336.152344 37.042969 C 337.105469 36.035156 338.765625 36.054688 339.851562 37.085938 C 339.851562 37.085938 339.851562 37.089844 339.851562 37.089844 C 340.9375 38.121094 341.042969 39.773438 340.085938 40.777344 L 302.410156 80.46875 C 301.769531 81.144531 301.425781 82.042969 301.449219 82.96875 C 301.472656 83.894531 301.863281 84.769531 302.53125 85.40625 C 302.535156 85.410156 302.535156 85.410156 302.535156 85.410156 C 303.203125 86.046875 304.101562 86.390625 305.023438 86.363281 C 305.953125 86.339844 306.832031 85.949219 307.472656 85.273438 C 316.125 76.15625 345.148438 45.582031 345.148438 45.582031 C 346.101562 44.578125 347.757812 44.59375 348.847656 45.628906 C 349.933594 46.65625 350.039062 48.3125 349.085938 49.316406 L 311.40625 89.011719 C 310.765625 89.683594 310.421875 90.582031 310.445312 91.507812 C 310.464844 92.433594 310.855469 93.308594 311.527344 93.949219 C 312.199219 94.582031 313.097656 94.929688 314.023438 94.902344 C 314.949219 94.878906 315.824219 94.484375 316.464844 93.8125 C 325.121094 84.695312 354.144531 54.121094 354.144531 54.121094 C 355.097656 53.113281 356.753906 53.132812 357.839844 54.164062 C 358.929688 55.199219 359.03125 56.851562 358.078125 57.855469 L 320.402344 97.546875 C 319.761719 98.222656 319.417969 99.121094 319.441406 100.046875 C 319.460938 100.972656 319.851562 101.847656 320.523438 102.484375 C 321.195312 103.125 322.089844 103.46875 323.015625 103.441406 C 323.941406 103.414062 324.820312 103.023438 325.460938 102.347656 C 334.113281 93.230469 363.136719 62.65625 363.136719 62.65625 C 364.089844 61.652344 365.75 61.671875 366.835938 62.703125 C 367.921875 63.734375 368.027344 65.386719 367.074219 66.394531 L 321.019531 114.910156 L 317.863281 118.234375 C 315.429688 120.796875 311.832031 121.75 308.832031 120.621094 C 303.511719 118.628906 296.917969 120.175781 292.351562 124.984375 L 225.585938 199.390625 C 225.585938 199.390625 213.175781 213.703125 205.175781 222.929688 C 203.453125 224.921875 200.988281 226.125 198.359375 226.257812 C 195.734375 226.390625 193.167969 225.441406 191.261719 223.632812 C 190.277344 222.695312 189.269531 221.738281 188.285156 220.804688 C 186.378906 218.992188 185.296875 216.484375 185.289062 213.851562 C 185.285156 211.21875 186.355469 208.695312 188.257812 206.867188 C 197.0625 198.402344 210.710938 185.269531 210.710938 185.269531 Z M 281.539062 114.722656 " fill-opacity="1" fill-rule="evenodd"/></g></g></g><g clip-path="url(#64edef2e64)"><g clip-path="url(#5bcd82d372)"><path fill="#000000" d="M 91.292969 118.675781 L 292.644531 118.675781 L 292.644531 320.027344 L 91.292969 320.027344 Z M 91.292969 118.675781 " fill-opacity="1" fill-rule="nonzero"/></g></g><g clip-path="url(#2ddd502f7f)"><path fill="#000000" d="M 192.074219 90.730469 C 121.046875 90.730469 63.382812 148.394531 63.382812 219.417969 C 63.382812 290.445312 121.046875 348.109375 192.074219 348.109375 C 263.101562 348.109375 320.765625 290.445312 320.765625 219.417969 C 320.765625 148.394531 263.101562 90.730469 192.074219 90.730469 Z M 192.074219 101.316406 C 257.253906 101.316406 310.175781 154.238281 310.175781 219.417969 C 310.175781 284.601562 257.253906 337.523438 192.074219 337.523438 C 126.886719 337.523438 73.96875 284.601562 73.96875 219.417969 C 73.96875 154.238281 126.886719 101.316406 192.074219 101.316406 Z M 192.074219 101.316406 " fill-opacity="1" fill-rule="evenodd"/></g><path fill="#c1292e" d="M 192.074219 103.621094 C 128.164062 103.621094 76.273438 155.507812 76.273438 219.421875 C 76.273438 283.332031 128.164062 335.21875 192.074219 335.21875 C 255.984375 335.21875 307.875 283.332031 307.875 219.421875 C 307.875 155.507812 255.984375 103.621094 192.074219 103.621094 Z M 192.074219 133.429688 C 239.535156 133.429688 278.070312 171.960938 278.070312 219.421875 C 278.070312 266.878906 239.535156 305.410156 192.074219 305.410156 C 144.617188 305.410156 106.082031 266.878906 106.082031 219.421875 C 106.082031 171.960938 144.617188 133.429688 192.074219 133.429688 Z M 192.074219 133.429688 " fill-opacity="1" fill-rule="evenodd"/><path fill="#000000" d="M 263.183594 267.765625 L 283.902344 289.945312 C 262.726562 317.46875 229.457031 335.21875 192.074219 335.21875 C 154.941406 335.21875 121.867188 317.703125 100.675781 290.5 L 121.367188 268.347656 C 136.898438 290.738281 162.785156 305.410156 192.074219 305.410156 C 221.613281 305.410156 247.695312 290.484375 263.183594 267.765625 Z M 263.183594 267.765625 " fill-opacity="1" fill-rule="evenodd"/><path fill="#f1d302" d="M 192.078125 100.664062 C 126.53125 100.664062 73.320312 153.878906 73.320312 219.421875 C 73.320312 284.964844 126.53125 338.179688 192.078125 338.179688 C 257.625 338.179688 310.835938 284.964844 310.835938 219.421875 C 310.835938 153.878906 257.625 100.664062 192.078125 100.664062 Z M 192.078125 104.265625 C 255.636719 104.265625 307.234375 155.867188 307.234375 219.421875 C 307.234375 282.976562 255.636719 334.578125 192.078125 334.578125 C 128.519531 334.578125 76.921875 282.976562 76.921875 219.421875 C 76.921875 155.867188 128.519531 104.265625 192.078125 104.265625 Z M 192.078125 104.265625 " fill-opacity="1" fill-rule="evenodd"/><g clip-path="url(#36c2cc209d)"><path fill="#fffff7" d="M 155.796875 139.9375 C 155.867188 139.636719 155.941406 139.339844 156.023438 139.046875 C 156.398438 137.699219 156.886719 136.425781 157.453125 135.226562 C 159.871094 130.097656 163.828125 126.25 168.617188 123.621094 C 173.207031 121.101562 178.574219 119.71875 184.082031 119.378906 C 192.199219 118.882812 200.632812 120.679688 207.359375 124.507812 C 212.269531 127.300781 216.273438 131.179688 218.636719 136.015625 C 218.882812 136.519531 219.128906 137.015625 219.382812 137.492188 C 230.480469 133.507812 239.855469 134.523438 246.976562 138.386719 C 257.9375 144.335938 263.605469 157.085938 262.015625 169.175781 C 260.289062 182.300781 250.050781 194.726562 228.667969 196.570312 L 228.667969 213.542969 C 228.667969 213.964844 228.445312 214.351562 228.082031 214.5625 C 227.722656 214.773438 227.273438 214.777344 226.910156 214.570312 C 203.585938 201.332031 179.351562 201.269531 154.195312 214.585938 C 153.828125 214.78125 153.390625 214.769531 153.035156 214.554688 C 152.683594 214.339844 152.46875 213.957031 152.46875 213.542969 L 152.46875 199.742188 C 130.425781 198.839844 120.230469 183.632812 120.933594 168.828125 C 121.640625 153.867188 133.503906 139.167969 155.796875 139.9375 Z M 155.796875 139.9375 " fill-opacity="1" fill-rule="evenodd"/><path fill="#000000" d="M 155.671875 139.777344 C 155.734375 139.519531 155.800781 139.261719 155.871094 139.007812 C 156.25 137.652344 156.742188 136.371094 157.3125 135.160156 C 159.746094 130.003906 163.722656 126.132812 168.539062 123.488281 C 173.152344 120.957031 178.542969 119.566406 184.074219 119.226562 C 192.222656 118.726562 200.683594 120.53125 207.4375 124.375 C 212.375 127.183594 216.398438 131.085938 218.78125 135.949219 C 219.003906 136.410156 219.226562 136.859375 219.460938 137.300781 C 230.550781 133.347656 239.921875 134.386719 247.050781 138.25 C 258.070312 144.230469 263.769531 157.046875 262.171875 169.199219 C 260.441406 182.355469 250.207031 194.824219 228.824219 196.71875 L 228.824219 213.546875 C 228.824219 214.023438 228.574219 214.460938 228.164062 214.703125 C 227.753906 214.941406 227.246094 214.945312 226.832031 214.710938 C 203.558594 201.5 179.375 201.441406 154.265625 214.730469 C 153.855469 214.949219 153.355469 214.933594 152.957031 214.691406 C 152.554688 214.449219 152.3125 214.015625 152.3125 213.546875 L 152.3125 199.894531 C 130.261719 198.925781 120.074219 183.671875 120.777344 168.824219 C 121.488281 153.820312 133.355469 139.066406 155.671875 139.777344 Z M 179.414062 179.289062 C 171.296875 180.648438 163.152344 183.453125 154.976562 187.6875 L 154.976562 211.355469 C 179.558594 198.980469 203.277344 199.039062 226.15625 211.285156 L 226.15625 189.433594 C 207.636719 198.664062 189.992188 192.550781 179.609375 179.488281 C 179.539062 179.429688 179.472656 179.363281 179.414062 179.289062 Z M 237.34375 150.132812 C 233.328125 151.175781 229.84375 150.769531 226.757812 149.203125 C 225.339844 148.480469 224.011719 147.503906 222.769531 146.300781 C 220.394531 143.996094 218.359375 140.835938 216.480469 137.085938 C 214.304688 132.691406 210.617188 129.210938 206.136719 126.679688 C 199.796875 123.097656 191.871094 121.433594 184.238281 121.898438 C 179.101562 122.214844 174.097656 123.496094 169.800781 125.8125 C 165.429688 128.171875 161.792969 131.605469 159.515625 136.226562 C 158.980469 137.316406 158.523438 138.46875 158.132812 139.6875 C 157.761719 140.847656 157.4375 142.054688 157.210938 143.335938 C 156.847656 145.296875 156.816406 148.167969 157.027344 150.976562 C 157.253906 153.972656 157.75 156.882812 158.464844 158.535156 C 158.570312 158.765625 158.476562 159.035156 158.246094 159.144531 C 158.019531 159.257812 157.746094 159.160156 157.636719 158.933594 C 156.75 157.265625 155.96875 154.269531 155.492188 151.15625 C 155.035156 148.191406 154.871094 145.132812 155.101562 143.019531 C 155.125 142.824219 155.152344 142.632812 155.175781 142.4375 C 134.964844 141.980469 124.089844 155.273438 123.441406 168.953125 C 122.800781 182.503906 132.226562 196.273438 152.3125 197.21875 L 152.3125 194.0625 C 150.773438 194.394531 149.339844 194.523438 148.007812 194.386719 C 146.894531 194.277344 145.847656 194.007812 144.890625 193.574219 C 143.691406 193.023438 142.617188 192.261719 141.675781 191.261719 C 140.855469 190.386719 140.144531 189.363281 139.515625 188.160156 C 139.359375 187.914062 139.425781 187.582031 139.667969 187.417969 C 139.914062 187.253906 140.242188 187.320312 140.410156 187.558594 C 141.035156 188.292969 141.6875 188.90625 142.367188 189.457031 C 143.421875 190.304688 144.550781 190.871094 145.769531 191.246094 C 146.546875 191.484375 147.363281 191.617188 148.226562 191.671875 C 149.410156 191.742188 150.6875 191.660156 152.066406 191.347656 L 152.3125 191.289062 L 152.3125 188.269531 L 151.527344 188.097656 L 151.519531 188.097656 C 148.792969 187.378906 146.433594 186.289062 144.480469 184.78125 C 143.085938 183.703125 141.882812 182.425781 140.898438 180.949219 C 139.757812 179.242188 138.890625 177.285156 138.289062 175.089844 C 137.773438 173.203125 137.464844 171.148438 137.332031 168.914062 C 137.300781 168.621094 137.507812 168.355469 137.800781 168.316406 C 138.09375 168.28125 138.363281 168.488281 138.402344 168.78125 C 138.71875 170.433594 139.144531 171.960938 139.644531 173.386719 C 140.464844 175.746094 141.5625 177.757812 142.914062 179.480469 C 143.847656 180.671875 144.910156 181.707031 146.121094 182.601562 C 147.839844 183.871094 149.847656 184.855469 152.207031 185.484375 L 153.042969 185.683594 C 161.304688 181.324219 169.539062 178.382812 177.742188 176.867188 C 177.441406 176.378906 177.132812 175.84375 176.835938 175.269531 C 176.175781 174 175.546875 172.53125 175.042969 170.875 C 174.726562 169.835938 174.449219 168.726562 174.273438 167.542969 C 174.167969 166.8125 174.074219 166.058594 174.074219 165.273438 C 174.074219 164.058594 174.25 162.84375 174.488281 161.535156 C 174.5 161.28125 174.714844 161.085938 174.964844 161.09375 C 175.21875 161.097656 175.417969 161.304688 175.417969 161.558594 C 175.582031 162.804688 175.875 163.925781 176.125 165.046875 C 176.28125 165.75 176.414062 166.433594 176.574219 167.09375 C 176.835938 168.148438 177.125 169.144531 177.453125 170.078125 C 177.980469 171.554688 178.597656 172.863281 179.210938 174.003906 C 179.949219 175.375 180.6875 176.507812 181.3125 177.371094 C 181.375 177.421875 181.429688 177.480469 181.480469 177.546875 C 191.199219 190.003906 207.96875 195.792969 225.511719 186.765625 C 225.546875 186.742188 225.578125 186.726562 225.617188 186.707031 C 225.636719 186.695312 225.660156 186.6875 225.675781 186.675781 C 226.003906 186.507812 226.335938 186.332031 226.664062 186.148438 C 227.847656 185.460938 229.472656 184.332031 231.164062 182.570312 C 232.136719 181.558594 233.128906 180.347656 234.089844 178.890625 C 235.074219 177.394531 236.011719 175.65625 236.867188 173.605469 C 237.582031 171.886719 238.273438 169.992188 238.808594 167.824219 C 238.859375 167.554688 239.117188 167.371094 239.386719 167.417969 C 239.660156 167.464844 239.839844 167.71875 239.800781 167.992188 C 239.589844 170.308594 239.238281 172.382812 238.714844 174.25 C 238.0625 176.558594 237.183594 178.527344 236.226562 180.210938 C 235.261719 181.898438 234.191406 183.289062 233.128906 184.433594 C 231.601562 186.082031 230.078125 187.21875 228.824219 187.996094 L 228.824219 190.183594 C 230.324219 189.871094 231.613281 189.390625 232.753906 188.851562 C 233.640625 188.433594 234.433594 187.992188 235.128906 187.441406 C 236.394531 186.449219 237.378906 185.261719 238.046875 183.738281 C 238.136719 183.460938 238.4375 183.304688 238.71875 183.390625 C 239 183.480469 239.15625 183.777344 239.074219 184.058594 C 238.859375 185.246094 238.480469 186.324219 237.929688 187.328125 C 237.355469 188.367188 236.597656 189.285156 235.640625 190.09375 C 234.945312 190.683594 234.136719 191.195312 233.222656 191.628906 C 232.066406 192.175781 230.730469 192.5625 229.246094 192.859375 L 228.824219 192.929688 L 228.824219 194.03125 C 248.402344 192.210938 257.933594 180.949219 259.527344 168.847656 C 260.984375 157.765625 255.832031 146.054688 245.78125 140.601562 C 239.304688 137.089844 230.820312 136.203125 220.789062 139.667969 C 221.9375 141.558594 223.167969 143.210938 224.484375 144.589844 C 225.527344 145.679688 226.613281 146.605469 227.800781 147.332031 C 230.425781 148.949219 233.460938 149.617188 237.121094 149.046875 C 237.417969 148.992188 237.703125 149.183594 237.765625 149.480469 C 237.828125 149.777344 237.636719 150.066406 237.34375 150.132812 Z M 237.34375 150.132812 " fill-opacity="1" fill-rule="evenodd"/></g><g clip-path="url(#771c743112)"><path fill="#ffffff" d="M 285.53125 225.316406 C 260.796875 221.554688 227.511719 219.480469 191.800781 219.480469 C 156.089844 219.480469 122.804688 221.554688 98.066406 225.316406 C 69.378906 229.679688 54.832031 235.824219 54.832031 243.585938 L 54.832031 286.433594 C 54.832031 289.902344 57.089844 292.789062 61.359375 294.773438 C 64.980469 296.453125 69.835938 297.382812 75.03125 297.382812 C 84.730469 297.382812 95.160156 293.976562 95.226562 286.507812 C 95.226562 286.484375 95.230469 286.457031 95.230469 286.433594 C 95.230469 286.0625 95.191406 285.703125 95.113281 285.355469 C 94.410156 278.808594 94.101562 271.589844 94.796875 270.488281 C 94.90625 270.429688 94.988281 270.34375 95.0625 270.25 C 119.074219 266.292969 152.773438 263.949219 191.800781 263.949219 C 227.433594 263.949219 260.632812 266.015625 285.289062 269.765625 C 286.402344 269.933594 287.488281 270.105469 288.558594 270.28125 C 288.628906 270.363281 288.707031 270.4375 288.804688 270.488281 C 289.5 271.589844 289.191406 278.808594 288.488281 285.355469 C 288.410156 285.703125 288.371094 286.0625 288.371094 286.433594 C 288.371094 289.902344 290.628906 292.789062 294.898438 294.773438 C 298.519531 296.453125 303.375 297.382812 308.570312 297.382812 C 318.296875 297.382812 328.769531 293.957031 328.769531 286.433594 L 328.769531 243.585938 C 328.769531 235.824219 314.222656 229.679688 285.53125 225.316406 " fill-opacity="1" fill-rule="nonzero"/><path fill="#000000" d="M 327.152344 245.714844 C 325.132812 242.898438 319.890625 238.914062 306.378906 235.871094 C 306.230469 235.839844 306.082031 235.929688 306.050781 236.078125 C 306.015625 236.226562 306.109375 236.375 306.257812 236.410156 C 320.953125 239.71875 325.65625 244.160156 327.152344 246.820312 L 327.152344 248.820312 C 324.949219 245.828125 318.992188 241.523438 303.132812 237.949219 C 302.984375 237.917969 302.835938 238.011719 302.804688 238.160156 C 302.769531 238.308594 302.863281 238.453125 303.011719 238.488281 C 320.195312 242.355469 325.523438 247.09375 327.152344 249.902344 L 327.152344 251.21875 C 325.132812 248.402344 319.890625 244.417969 306.378906 241.375 C 306.230469 241.34375 306.082031 241.4375 306.050781 241.585938 C 306.015625 241.730469 306.109375 241.878906 306.257812 241.914062 C 320.953125 245.222656 325.65625 249.664062 327.152344 252.324219 L 327.152344 254.324219 C 324.949219 251.335938 318.992188 247.027344 303.132812 243.457031 C 302.984375 243.421875 302.835938 243.515625 302.804688 243.664062 C 302.769531 243.8125 302.863281 243.960938 303.011719 243.992188 C 320.195312 247.863281 325.523438 252.597656 327.152344 255.410156 L 327.152344 256.722656 C 325.132812 253.910156 319.890625 249.925781 306.378906 246.882812 C 306.230469 246.847656 306.082031 246.941406 306.050781 247.089844 C 306.015625 247.238281 306.109375 247.386719 306.257812 247.417969 C 320.953125 250.730469 325.65625 255.167969 327.152344 257.828125 L 327.152344 259.828125 C 324.949219 256.839844 318.992188 252.53125 303.132812 248.960938 C 302.984375 248.925781 302.835938 249.019531 302.804688 249.167969 C 302.769531 249.316406 302.863281 249.464844 303.011719 249.5 C 320.195312 253.367188 325.523438 258.101562 327.152344 260.914062 L 327.152344 262.230469 C 325.132812 259.414062 319.890625 255.429688 306.378906 252.386719 C 306.230469 252.355469 306.082031 252.445312 306.050781 252.59375 C 306.015625 252.742188 306.109375 252.890625 306.257812 252.925781 C 320.953125 256.234375 325.65625 260.675781 327.152344 263.335938 L 327.152344 265.335938 C 324.949219 262.34375 318.992188 258.039062 303.132812 254.464844 C 302.984375 254.433594 302.835938 254.527344 302.804688 254.675781 C 302.769531 254.824219 302.863281 254.96875 303.011719 255.003906 C 320.195312 258.871094 325.523438 263.609375 327.152344 266.417969 L 327.152344 267.734375 C 325.132812 264.917969 319.890625 260.933594 306.378906 257.890625 C 306.230469 257.859375 306.082031 257.953125 306.050781 258.101562 C 306.015625 258.25 306.109375 258.394531 306.257812 258.429688 C 320.953125 261.738281 325.65625 266.179688 327.152344 268.839844 L 327.152344 270.839844 C 324.949219 267.851562 318.992188 263.542969 303.132812 259.972656 C 302.984375 259.9375 302.835938 260.03125 302.804688 260.179688 C 302.769531 260.328125 302.863281 260.476562 303.011719 260.507812 C 320.195312 264.378906 325.523438 269.113281 327.152344 271.925781 L 327.152344 273.238281 C 325.132812 270.425781 319.890625 266.441406 306.378906 263.398438 C 306.230469 263.363281 306.082031 263.457031 306.050781 263.605469 C 306.015625 263.753906 306.109375 263.902344 306.257812 263.933594 C 320.953125 267.246094 325.65625 271.683594 327.152344 274.34375 L 327.152344 276.34375 C 324.949219 273.355469 318.992188 269.046875 303.132812 265.476562 C 302.984375 265.445312 302.835938 265.535156 302.804688 265.683594 C 302.769531 265.832031 302.863281 265.980469 303.011719 266.015625 C 320.195312 269.882812 325.523438 274.617188 327.152344 277.429688 L 327.152344 278.746094 C 325.132812 275.929688 319.890625 271.945312 306.378906 268.902344 C 306.230469 268.867188 306.082031 268.960938 306.050781 269.109375 C 306.015625 269.257812 306.109375 269.40625 306.257812 269.441406 C 320.953125 272.75 325.65625 277.191406 327.152344 279.851562 L 327.152344 282.132812 C 322.644531 276.375 308.699219 271.6875 285.53125 268.164062 C 260.796875 264.402344 227.511719 262.332031 191.800781 262.332031 C 156.089844 262.332031 122.804688 264.402344 98.066406 268.164062 C 74.902344 271.6875 60.957031 276.375 56.449219 282.132812 L 56.449219 280.132812 C 57.765625 277.515625 62.265625 272.867188 77.496094 269.441406 C 77.640625 269.40625 77.738281 269.257812 77.703125 269.109375 C 77.671875 268.960938 77.523438 268.867188 77.375 268.902344 C 63.511719 272.023438 58.351562 276.136719 56.449219 278.960938 L 56.449219 277.707031 C 57.882812 274.9375 62.980469 270.011719 80.742188 266.015625 C 80.890625 265.980469 80.984375 265.832031 80.949219 265.683594 C 80.914062 265.535156 80.769531 265.441406 80.621094 265.476562 C 64.378906 269.132812 58.523438 273.5625 56.449219 276.558594 L 56.449219 274.628906 C 57.765625 272.011719 62.265625 267.363281 77.496094 263.933594 C 77.640625 263.902344 77.738281 263.753906 77.703125 263.605469 C 77.671875 263.457031 77.523438 263.363281 77.375 263.398438 C 63.511719 266.519531 58.351562 270.632812 56.449219 273.457031 L 56.449219 272.203125 C 57.882812 269.429688 62.980469 264.507812 80.742188 260.507812 C 80.890625 260.476562 80.984375 260.328125 80.949219 260.179688 C 80.914062 260.03125 80.769531 259.9375 80.621094 259.972656 C 64.378906 263.628906 58.523438 268.058594 56.449219 271.054688 L 56.449219 269.121094 C 57.765625 266.503906 62.265625 261.859375 77.496094 258.429688 C 77.640625 258.394531 77.738281 258.25 77.703125 258.101562 C 77.671875 257.953125 77.523438 257.859375 77.375 257.890625 C 63.511719 261.015625 58.351562 265.125 56.449219 267.953125 L 56.449219 266.695312 C 57.882812 263.925781 62.980469 259 80.742188 255.003906 C 80.890625 254.96875 80.984375 254.824219 80.949219 254.675781 C 80.914062 254.527344 80.769531 254.433594 80.621094 254.464844 C 64.378906 258.125 58.523438 262.550781 56.449219 265.546875 L 56.449219 263.617188 C 57.765625 261 62.265625 256.351562 77.496094 252.925781 C 77.640625 252.890625 77.738281 252.742188 77.703125 252.59375 C 77.671875 252.445312 77.523438 252.351562 77.375 252.386719 C 63.511719 255.507812 58.351562 259.621094 56.449219 262.445312 L 56.449219 261.191406 C 57.882812 258.421875 62.980469 253.496094 80.742188 249.5 C 80.890625 249.464844 80.984375 249.316406 80.949219 249.167969 C 80.914062 249.019531 80.769531 248.925781 80.621094 248.960938 C 64.378906 252.617188 58.523438 257.046875 56.449219 260.042969 L 56.449219 258.113281 C 57.765625 255.496094 62.265625 250.847656 77.496094 247.417969 C 77.640625 247.386719 77.738281 247.238281 77.703125 247.089844 C 77.671875 246.941406 77.523438 246.847656 77.375 246.882812 C 63.511719 250.003906 58.351562 254.117188 56.449219 256.941406 L 56.449219 255.6875 C 57.882812 252.914062 62.980469 247.992188 80.742188 243.992188 C 80.890625 243.960938 80.984375 243.8125 80.949219 243.664062 C 80.914062 243.515625 80.769531 243.421875 80.621094 243.457031 C 64.378906 247.113281 58.523438 251.542969 56.449219 254.539062 L 56.449219 252.605469 C 57.765625 249.988281 62.265625 245.34375 77.496094 241.914062 C 77.640625 241.878906 77.738281 241.730469 77.703125 241.585938 C 77.671875 241.4375 77.523438 241.34375 77.375 241.375 C 63.511719 244.5 58.351562 248.609375 56.449219 251.4375 L 56.449219 250.179688 C 57.882812 247.410156 62.980469 242.484375 80.742188 238.488281 C 80.890625 238.453125 80.984375 238.308594 80.949219 238.160156 C 80.914062 238.011719 80.769531 237.917969 80.621094 237.949219 C 64.378906 241.605469 58.523438 246.035156 56.449219 249.03125 L 56.449219 247.101562 C 57.765625 244.484375 62.265625 239.839844 77.496094 236.410156 C 77.640625 236.375 77.738281 236.226562 77.703125 236.078125 C 77.671875 235.929688 77.523438 235.835938 77.375 235.871094 C 63.511719 238.992188 58.351562 243.105469 56.449219 245.929688 L 56.449219 244.675781 C 57.882812 241.90625 62.980469 236.980469 80.742188 232.984375 C 80.890625 232.949219 80.984375 232.800781 80.949219 232.652344 C 80.914062 232.503906 80.769531 232.410156 80.621094 232.445312 C 64.390625 236.097656 58.535156 240.523438 56.453125 243.519531 C 56.640625 230.523438 113.503906 221.097656 191.800781 221.097656 C 227.433594 221.097656 260.632812 223.164062 285.289062 226.914062 C 311.882812 230.957031 326.695312 236.765625 327.132812 243.289062 C 324.910156 240.300781 318.945312 236.007812 303.132812 232.445312 C 302.984375 232.414062 302.835938 232.503906 302.804688 232.652344 C 302.769531 232.800781 302.863281 232.949219 303.011719 232.984375 C 320.195312 236.851562 325.523438 241.585938 327.152344 244.398438 Z M 299.347656 280.347656 C 301.097656 280.066406 302.960938 279.921875 304.816406 279.921875 C 307.730469 279.921875 310.488281 280.257812 312.832031 280.878906 L 312.824219 284.234375 C 311.175781 283.355469 308.492188 283 305.921875 283 C 303.488281 283 300.960938 283.320312 299.296875 284.105469 C 299.476562 282.152344 299.449219 281.019531 299.347656 280.347656 Z M 319.652344 286.433594 C 319.652344 287.425781 319.007812 288.304688 317.738281 289.039062 C 313.734375 291.351562 304.945312 291.351562 300.941406 289.039062 C 299.683594 288.308594 299.042969 287.445312 299.027344 286.46875 C 299.035156 286.429688 299.039062 286.394531 299.042969 286.355469 C 299.214844 285.605469 301.796875 284.617188 305.921875 284.617188 C 310.195312 284.617188 312.820312 285.679688 312.820312 286.433594 C 312.820312 286.882812 313.179688 287.242188 313.628906 287.246094 C 314.070312 287.246094 314.433594 286.882812 314.433594 286.4375 L 314.445312 281.378906 C 314.726562 281.476562 314.996094 281.582031 315.261719 281.695312 C 317.179688 282.492188 319.445312 283.902344 319.632812 286.132812 L 319.640625 286.328125 C 319.640625 286.363281 319.644531 286.398438 319.652344 286.429688 C 319.652344 286.433594 319.652344 286.433594 319.652344 286.433594 Z M 290.480469 270.601562 C 303.488281 272.828125 313.253906 275.507812 319.425781 278.503906 L 319.535156 282.527344 C 318.234375 281.234375 316.296875 280.25 314.027344 279.558594 C 313.929688 279.503906 313.816406 279.46875 313.699219 279.460938 C 310.992188 278.683594 307.863281 278.304688 304.816406 278.304688 C 299.273438 278.304688 293.429688 279.554688 290.425781 282.222656 C 291.039062 275.460938 290.863281 272.203125 290.480469 270.601562 Z M 308.570312 295.765625 C 299.347656 295.765625 290.019531 292.570312 289.988281 286.46875 C 290.019531 286.175781 290.050781 285.902344 290.082031 285.625 C 290.652344 283.199219 293.773438 281.527344 297.777344 280.644531 C 297.882812 281.527344 297.722656 283.886719 297.464844 285.976562 C 297.460938 286 297.460938 286.023438 297.453125 286.046875 C 297.445312 286.144531 297.429688 286.238281 297.417969 286.328125 C 297.417969 286.351562 297.417969 286.367188 297.417969 286.386719 C 297.417969 286.40625 297.410156 286.421875 297.410156 286.433594 C 297.410156 287.542969 297.882812 289.136719 300.136719 290.4375 C 304.695312 293.074219 313.984375 293.074219 318.542969 290.4375 C 320.765625 289.15625 321.253906 287.585938 321.265625 286.484375 C 321.28125 286.417969 321.289062 286.351562 321.289062 286.28125 L 321.101562 279.367188 C 325.085938 281.589844 327.152344 283.960938 327.152344 286.433594 C 327.152344 292.558594 317.804688 295.765625 308.570312 295.765625 Z M 84.304688 284.105469 C 82.640625 283.320312 80.113281 283 77.675781 283 C 75.109375 283 72.425781 283.355469 70.777344 284.234375 L 70.769531 280.878906 C 73.179688 280.242188 75.984375 279.921875 78.78125 279.921875 C 80.695312 279.921875 82.542969 280.070312 84.25 280.347656 C 84.148438 281.019531 84.125 282.152344 84.304688 284.105469 Z M 63.953125 286.3125 C 64.03125 284.097656 66.121094 282.441406 69.15625 281.367188 L 69.167969 286.433594 L 69.167969 286.4375 C 69.167969 286.882812 69.527344 287.246094 69.972656 287.246094 C 70.421875 287.242188 70.78125 286.882812 70.78125 286.433594 C 70.78125 285.679688 73.402344 284.617188 77.675781 284.617188 C 79.589844 284.617188 81.4375 284.847656 82.738281 285.238281 C 83.957031 285.609375 84.460938 286.039062 84.554688 286.339844 C 84.558594 286.382812 84.566406 286.421875 84.570312 286.464844 C 84.535156 289.265625 79.246094 290.78125 74.261719 290.78125 C 69.269531 290.78125 63.964844 289.261719 63.949219 286.449219 C 63.953125 286.414062 63.957031 286.382812 63.957031 286.347656 Z M 93.171875 282.222656 C 90.167969 279.554688 84.328125 278.304688 78.78125 278.304688 C 75.738281 278.304688 72.605469 278.683594 69.902344 279.460938 C 69.785156 279.46875 69.671875 279.503906 69.574219 279.558594 C 67.175781 280.285156 65.148438 281.34375 63.851562 282.75 L 63.730469 278.71875 C 69.96875 275.589844 80.019531 272.835938 93.128906 270.574219 C 92.742188 272.167969 92.554688 275.421875 93.171875 282.222656 Z M 75.03125 295.765625 C 65.796875 295.765625 56.449219 292.558594 56.449219 286.433594 C 56.449219 284.019531 58.414062 281.722656 62.105469 279.589844 L 62.308594 286.398438 C 62.308594 286.464844 62.320312 286.527344 62.335938 286.589844 C 62.390625 287.933594 63.144531 289.746094 66.308594 291.046875 C 68.421875 291.917969 71.242188 292.398438 74.261719 292.398438 C 82.421875 292.398438 86.113281 289.460938 86.183594 286.519531 C 86.183594 286.503906 86.183594 286.488281 86.183594 286.472656 C 86.183594 286.457031 86.191406 286.449219 86.191406 286.433594 C 86.191406 286.421875 86.183594 286.40625 86.183594 286.390625 C 86.183594 286.367188 86.183594 286.351562 86.179688 286.328125 C 86.171875 286.238281 86.15625 286.144531 86.148438 286.046875 C 86.140625 286.023438 86.140625 286 86.136719 285.976562 C 85.878906 283.886719 85.714844 281.523438 85.824219 280.644531 C 87.066406 280.921875 88.214844 281.273438 89.226562 281.695312 C 91 282.429688 93.070312 283.691406 93.523438 285.644531 C 93.554688 285.917969 93.582031 286.1875 93.613281 286.46875 C 93.582031 292.570312 84.25 295.765625 75.03125 295.765625 Z M 285.53125 225.316406 C 260.796875 221.554688 227.511719 219.480469 191.800781 219.480469 C 156.089844 219.480469 122.804688 221.554688 98.066406 225.316406 C 69.378906 229.679688 54.832031 235.824219 54.832031 243.585938 L 54.832031 286.433594 C 54.832031 289.902344 57.089844 292.789062 61.359375 294.773438 C 64.980469 296.453125 69.835938 297.382812 75.03125 297.382812 C 84.730469 297.382812 95.160156 293.976562 95.226562 286.507812 C 95.226562 286.484375 95.230469 286.457031 95.230469 286.433594 C 95.230469 286.0625 95.191406 285.703125 95.113281 285.355469 C 94.410156 278.808594 94.101562 271.589844 94.796875 270.488281 C 94.90625 270.429688 94.988281 270.34375 95.0625 270.25 C 119.074219 266.292969 152.773438 263.949219 191.800781 263.949219 C 227.433594 263.949219 260.632812 266.015625 285.289062 269.765625 C 286.402344 269.933594 287.488281 270.105469 288.558594 270.28125 C 288.628906 270.363281 288.707031 270.4375 288.804688 270.488281 C 289.5 271.589844 289.191406 278.808594 288.488281 285.355469 C 288.410156 285.703125 288.371094 286.0625 288.371094 286.433594 C 288.371094 289.902344 290.628906 292.789062 294.898438 294.773438 C 298.519531 296.453125 303.375 297.382812 308.570312 297.382812 C 318.296875 297.382812 328.769531 293.957031 328.769531 286.433594 L 328.769531 243.585938 C 328.769531 235.824219 314.222656 229.679688 285.53125 225.316406 " fill-opacity="1" fill-rule="nonzero"/></g><g clip-path="url(#7d334b91d0)"><path fill="#f1d302" d="M 128.148438 286.214844 C 128.152344 286.207031 128.160156 286.203125 128.167969 286.203125 C 128.175781 286.203125 128.1875 286.207031 128.1875 286.214844 C 128.375 286.710938 129.796875 290.441406 131.027344 291.734375 C 132.253906 293.023438 135.589844 294.304688 136.039062 294.472656 C 136.046875 294.476562 136.054688 294.484375 136.054688 294.492188 C 136.054688 294.5 136.046875 294.507812 136.039062 294.511719 C 135.585938 294.683594 132.175781 296.011719 130.949219 297.304688 C 129.71875 298.59375 128.375 302.253906 128.1875 302.765625 C 128.1875 302.773438 128.179688 302.777344 128.167969 302.777344 C 128.160156 302.777344 128.152344 302.773438 128.148438 302.765625 C 127.996094 302.253906 126.886719 298.660156 125.664062 297.371094 C 124.429688 296.074219 120.75 294.679688 120.292969 294.507812 C 120.285156 294.507812 120.28125 294.5 120.277344 294.492188 C 120.277344 294.484375 120.285156 294.476562 120.292969 294.472656 C 120.730469 294.277344 124.238281 292.703125 125.472656 291.40625 C 126.699219 290.113281 127.976562 286.691406 128.148438 286.214844 Z M 128.148438 286.214844 " fill-opacity="1" fill-rule="evenodd"/></g><g fill="#c1292e" fill-opacity="1"><g transform="translate(108.763495, 262.364776)"><g><path d="M 29.394531 -13.351562 C 29.394531 -13.867188 29.324219 -14.164062 29.066406 -14.140625 C 28.898438 -14.125 28.652344 -13.972656 28.289062 -13.683594 C 27.078125 -12.757812 24.703125 -11.816406 22.605469 -11.632812 C 21.707031 -11.554688 20.882812 -11.613281 20.171875 -11.851562 C 21.507812 -7.917969 21.0625 -4.128906 17.957031 -3.683594 C 15.445312 -3.292969 11.828125 -6.726562 10.503906 -15.921875 C 9.414062 -23.457031 11.59375 -29.078125 14.269531 -29.570312 C 18.171875 -30.300781 16.449219 -24.847656 17.457031 -21.703125 C 18.230469 -19.269531 20.152344 -18.488281 22.25 -18.671875 C 24.730469 -18.890625 27.433594 -20.507812 28.609375 -22.332031 C 24.984375 -24.34375 26.125 -29.53125 26.398438 -32.832031 L 25.585938 -32.242188 C 24.53125 -31.503906 23.523438 -31.199219 22.582031 -31.117188 C 19.886719 -30.882812 17.414062 -32.519531 13.863281 -32.207031 C 4.238281 -31.367188 -0.9375 -25.007812 -0.0820312 -15.210938 C 0.777344 -5.414062 7.109375 -0.0625 16.914062 -0.789062 C 24.753906 -1.390625 29.269531 -5.925781 29.394531 -13.351562 Z M 29.394531 -13.351562 "/></g></g></g><g fill="#c1292e" fill-opacity="1"><g transform="translate(139.645487, 259.594995)"><g><path d="M 34.792969 -3.476562 C 31.578125 -3.332031 31.78125 -8.414062 31.636719 -11.675781 L 30.988281 -26.347656 C 30.925781 -27.761719 31.277344 -29.539062 31.910156 -30.773438 L 32.382812 -31.695312 C 31.148438 -31.46875 29.097656 -31.164062 26.953125 -31.070312 C 23.949219 -30.9375 20.800781 -31.226562 19.480469 -32.84375 C 18.9375 -32.476562 18.382812 -31.464844 18.4375 -30.175781 C 18.519531 -28.332031 19.308594 -26.992188 20.546875 -26.230469 L 20.914062 -17.90625 L 13.363281 -17.570312 L 13.011719 -25.550781 C 12.949219 -26.96875 13.300781 -28.746094 13.933594 -29.976562 L 14.410156 -30.902344 C 13.171875 -30.675781 11.121094 -30.367188 8.976562 -30.273438 C 5.972656 -30.140625 2.824219 -30.429688 1.503906 -32.046875 C 0.960938 -31.679688 0.40625 -30.667969 0.460938 -29.378906 C 0.542969 -27.535156 1.332031 -26.195312 2.570312 -25.433594 L 3.433594 -5.007812 C 3.496094 -3.59375 3.054688 -1.855469 2.335938 -0.664062 L 1.933594 0 L 15.878906 -0.617188 L 15.421875 -1.242188 C 14.597656 -2.367188 14.007812 -4.058594 13.941406 -5.476562 L 13.480469 -14.996094 L 21.03125 -15.332031 L 21.414062 -6.621094 C 21.617188 -2.074219 24.742188 -0.449219 29.246094 -0.648438 C 32.117188 -0.820312 34.308594 -1.863281 34.792969 -3.476562 Z M 34.792969 -3.476562 "/></g></g></g><g fill="#c1292e" fill-opacity="1"><g transform="translate(175.738835, 258.05795)"><g><path d="M 28.128906 -0.109375 C 27.179688 -2.339844 27.167969 -7.75 28.277344 -9.554688 C 24.667969 -10.277344 22.402344 -6.621094 22.28125 -2.628906 L 14.507812 -2.652344 C 14.292969 -3.382812 14.164062 -4.15625 14.160156 -4.886719 L 14.09375 -15.835938 L 17.269531 -15.84375 C 19.503906 -15.847656 19.636719 -13.832031 19.640625 -12.757812 C 20.027344 -12.628906 21.660156 -12.546875 22.128906 -12.589844 L 22.113281 -20.835938 C 21.640625 -20.835938 20.007812 -20.789062 19.621094 -20.617188 C 19.582031 -19.070312 19.585938 -17.566406 17.265625 -17.5625 L 14.089844 -17.554688 L 14.070312 -26.273438 C 14.066406 -26.871094 14.152344 -27.300781 14.28125 -27.6875 L 21.839844 -27.75 C 21.976562 -23.800781 24.261719 -20.152344 27.867188 -20.847656 C 26.746094 -22.652344 26.734375 -28.0625 27.671875 -30.339844 L 15.648438 -30.3125 L 15.691406 -30.3125 C 14.488281 -30.308594 12.214844 -30.089844 9.851562 -30.085938 C 6.972656 -30.078125 4.007812 -30.414062 2.847656 -31.957031 C 2.289062 -31.613281 1.691406 -30.625 1.691406 -29.335938 C 1.699219 -27.488281 2.429688 -26.117188 3.636719 -25.304688 L 3.640625 -4.859375 C 3.640625 -3.445312 3.132812 -1.726562 2.316406 -0.5625 L 1.933594 -0.00390625 L 15.890625 -0.0351562 L 15.890625 -0.078125 Z M 28.128906 -0.109375 "/></g></g></g><g fill="#c1292e" fill-opacity="1"><g transform="translate(205.058745, 257.989761)"><g><path d="M 14.332031 -4.359375 L 14.683594 -14.445312 L 17.386719 -14.351562 C 19.660156 -14.269531 19.71875 -12.25 19.683594 -11.175781 C 20.019531 -11.035156 21.691406 -10.890625 22.164062 -10.917969 L 22.453125 -19.160156 C 21.980469 -19.175781 20.304688 -19.191406 19.953125 -19.03125 C 19.816406 -17.488281 19.761719 -15.984375 17.445312 -16.066406 L 14.742188 -16.160156 L 15.03125 -25.734375 C 15.050781 -26.332031 15.152344 -26.761719 15.339844 -27.140625 L 22.851562 -26.921875 C 22.84375 -22.96875 24.988281 -19.242188 28.617188 -19.804688 C 27.566406 -21.644531 27.753906 -27.050781 28.777344 -29.292969 L 16.800781 -29.710938 C 15.601562 -29.753906 13.320312 -29.617188 10.957031 -29.699219 C 8.082031 -29.796875 5.132812 -30.246094 4.070312 -31.828125 C 3.5 -31.503906 2.824219 -30.539062 2.777344 -29.253906 C 2.714844 -27.40625 3.4375 -26.007812 4.570312 -25.152344 L 3.859375 -4.722656 C 3.808594 -3.304688 3.191406 -1.609375 2.378906 -0.476562 L 1.972656 0.0703125 L 15.921875 0.554688 L 15.511719 -0.0195312 C 14.78125 -1.207031 14.28125 -2.941406 14.332031 -4.359375 Z M 14.332031 -4.359375 "/></g></g></g><g fill="#c1292e" fill-opacity="1"><g transform="translate(233.591104, 259.082286)"><g><path d="M 12.554688 -27.285156 C 12.726562 -30.113281 10.933594 -31.730469 8.1875 -31.898438 C 5.703125 -32.050781 3.382812 -30.726562 3.265625 -28.109375 C 3.101562 -25.410156 4.832031 -23.453125 7.660156 -23.28125 C 9.460938 -23.171875 4.398438 -20.554688 2.789062 -20.308594 C 5.109375 -19.523438 5.539062 -18.117188 5.394531 -17.179688 C 8.320312 -19.28125 12.292969 -23.042969 12.554688 -27.285156 Z M 12.554688 -27.285156 "/></g></g></g><g fill="#c1292e" fill-opacity="1"><g transform="translate(246.064788, 259.72258)"><g><path d="M 29.476562 -5.714844 C 30.226562 -16.167969 13.414062 -18.128906 13.820312 -24.644531 C 13.953125 -26.660156 15.480469 -27.34375 17.199219 -27.277344 C 20.59375 -27.152344 23.617188 -24.296875 23.269531 -20.359375 C 24.675781 -19.675781 25.921875 -19.136719 26.863281 -18.578125 C 26.679688 -22.34375 29.992188 -23.257812 30.246094 -26.125 C 30.304688 -26.765625 30.234375 -27.460938 29.925781 -28.351562 C 29.113281 -27.433594 27.925781 -27.191406 26.515625 -27.316406 C 23.734375 -27.5625 20.171875 -29.214844 17.265625 -29.472656 C 8.921875 -30.207031 3.726562 -27.519531 3.246094 -22.089844 C 2.289062 -11.265625 19.398438 -9.234375 18.867188 -3.246094 C 18.652344 -0.808594 16.617188 -0.210938 14.5625 -0.394531 C 11.140625 -0.695312 6.964844 -3.695312 6.640625 -7.820312 L 3.027344 -9.390625 C 3.210938 -8.511719 3.261719 -7.644531 3.195312 -6.875 C 3.039062 -5.121094 2.390625 -3.625 1.828125 -2.640625 C 4.167969 -0.796875 10.085938 1.496094 14.578125 1.890625 C 23.261719 2.660156 29.074219 -0.1875 29.476562 -5.714844 Z M 29.476562 -5.714844 "/></g></g></g><g fill="#ffffff" fill-opacity="1"><g transform="translate(164.674174, 315.450682)"><g><path d="M 10.53125 2.1875 L 11.796875 -3.953125 L 7.71875 0.46875 L 6.640625 0.25 L 4.671875 -5.296875 L 3.421875 0.71875 L 1.203125 0.25 L 3.34375 -9.984375 L 5.3125 -9.578125 L 7.796875 -2.421875 L 12.90625 -7.984375 L 14.859375 -7.578125 L 12.734375 2.65625 Z M 10.53125 2.1875 "/></g></g></g><g fill="#ffffff" fill-opacity="1"><g transform="translate(181.112189, 318.534574)"><g><path d="M 9.421875 -1.375 L 9.3125 0.5625 L 1.234375 0.078125 L 1.859375 -10.359375 L 9.734375 -9.890625 L 9.609375 -7.9375 L 4.140625 -8.265625 L 4.015625 -6 L 8.84375 -5.71875 L 8.734375 -3.859375 L 3.90625 -4.140625 L 3.75 -1.71875 Z M 9.421875 -1.375 "/></g></g></g><g fill="#ffffff" fill-opacity="1"><g transform="translate(193.544789, 319.180788)"><g><path d="M 10 -11.234375 L 10.78125 -0.8125 L 8.796875 -0.65625 L 3.140625 -6.59375 L 3.609375 -0.265625 L 1.234375 -0.09375 L 0.453125 -10.515625 L 2.4375 -10.65625 L 8.09375 -4.71875 L 7.625 -11.046875 Z M 10 -11.234375 "/></g></g></g><g fill="#ffffff" fill-opacity="1"><g transform="translate(208.018703, 317.906259)"><g><path d="M 5.765625 -1.109375 C 4.304688 -0.785156 3.082031 -0.9375 2.09375 -1.5625 C 1.113281 -2.1875 0.457031 -3.242188 0.125 -4.734375 L -1.140625 -10.453125 L 1.21875 -10.96875 L 2.46875 -5.34375 C 2.875 -3.507812 3.832031 -2.765625 5.34375 -3.109375 C 6.082031 -3.273438 6.59375 -3.617188 6.875 -4.140625 C 7.164062 -4.671875 7.207031 -5.410156 7 -6.359375 L 5.75 -11.984375 L 8.09375 -12.5 L 9.359375 -6.78125 C 9.691406 -5.289062 9.539062 -4.050781 8.90625 -3.0625 C 8.28125 -2.082031 7.234375 -1.429688 5.765625 -1.109375 Z M 5.765625 -1.109375 "/></g></g></g><g clip-path="url(#166b5c359f)"><path fill="#f1d302" d="M 255.78125 286.214844 C 255.785156 286.207031 255.792969 286.203125 255.800781 286.203125 C 255.808594 286.203125 255.820312 286.207031 255.820312 286.214844 C 256.007812 286.710938 257.429688 290.441406 258.660156 291.734375 C 259.886719 293.023438 263.222656 294.304688 263.671875 294.472656 C 263.679688 294.476562 263.6875 294.484375 263.6875 294.492188 C 263.6875 294.5 263.679688 294.507812 263.671875 294.511719 C 263.21875 294.683594 259.808594 296.011719 258.582031 297.304688 C 257.355469 298.59375 256.007812 302.253906 255.824219 302.765625 C 255.820312 302.773438 255.8125 302.777344 255.800781 302.777344 C 255.792969 302.777344 255.785156 302.773438 255.785156 302.765625 C 255.628906 302.253906 254.519531 298.660156 253.296875 297.371094 C 252.0625 296.074219 248.382812 294.679688 247.925781 294.507812 C 247.917969 294.507812 247.914062 294.5 247.914062 294.492188 C 247.914062 294.484375 247.917969 294.476562 247.925781 294.472656 C 248.363281 294.277344 251.875 292.703125 253.105469 291.40625 C 254.332031 290.113281 255.609375 286.691406 255.78125 286.214844 Z M 255.78125 286.214844 " fill-opacity="1" fill-rule="evenodd"/></g></svg>