<svg xmlns="http://www.w3.org/2000/svg" xmlns:xlink="http://www.w3.org/1999/xlink" width="500" zoomAndPan="magnify" viewBox="0 0 375 374.999991" height="500" preserveAspectRatio="xMidYMid meet" version="1.0"><defs><clipPath id="c07c13952f"><path d="M 46 16.988281 L 319 16.988281 L 319 346 L 46 346 Z M 46 16.988281 " clip-rule="nonzero"/></clipPath></defs><path fill="#000000" d="M 92.324219 112.664062 C 90.769531 114.214844 89.253906 115.804688 87.777344 117.429688 C 86.300781 119.058594 84.867188 120.71875 83.472656 122.417969 C 82.078125 124.113281 80.726562 125.84375 79.417969 127.605469 C 78.105469 129.371094 76.84375 131.164062 75.621094 132.988281 C 74.398438 134.816406 73.222656 136.667969 72.09375 138.550781 C 70.964844 140.433594 69.878906 142.34375 68.84375 144.28125 C 67.808594 146.21875 66.820312 148.175781 65.878906 150.160156 C 64.941406 152.144531 64.050781 154.152344 63.207031 156.179688 C 62.367188 158.210938 61.578125 160.257812 60.835938 162.324219 C 60.09375 164.390625 59.40625 166.476562 58.769531 168.574219 C 58.128906 170.675781 57.542969 172.792969 57.007812 174.921875 C 56.476562 177.050781 55.992188 179.191406 55.566406 181.34375 C 55.136719 183.496094 54.761719 185.660156 54.4375 187.832031 C 54.117188 190.003906 53.847656 192.179688 53.632812 194.367188 C 53.414062 196.550781 53.253906 198.738281 53.144531 200.933594 C 53.039062 203.125 52.984375 205.320312 52.984375 207.515625 C 52.984375 209.710938 53.039062 211.902344 53.144531 214.097656 C 53.253906 216.289062 53.414062 218.476562 53.628906 220.664062 C 53.847656 222.847656 54.113281 225.027344 54.4375 227.195312 C 54.761719 229.367188 55.136719 231.53125 55.5625 233.683594 C 55.992188 235.835938 56.472656 237.980469 57.007812 240.109375 C 57.542969 242.238281 58.128906 244.351562 58.765625 246.453125 C 59.40625 248.554688 60.09375 250.636719 60.835938 252.707031 C 61.574219 254.773438 62.367188 256.820312 63.207031 258.847656 C 64.046875 260.875 64.9375 262.882812 65.878906 264.867188 C 66.816406 266.851562 67.804688 268.8125 68.84375 270.75 C 69.878906 272.683594 70.960938 274.59375 72.089844 276.476562 C 73.222656 278.359375 74.398438 280.214844 75.617188 282.039062 C 76.839844 283.867188 78.105469 285.660156 79.414062 287.421875 C 80.722656 289.1875 82.074219 290.917969 83.46875 292.613281 C 84.863281 294.3125 86.300781 295.972656 87.777344 297.597656 C 89.25 299.226562 90.765625 300.816406 92.320312 302.367188 C 93.875 303.921875 95.46875 305.433594 97.09375 306.90625 C 98.722656 308.382812 100.386719 309.816406 102.085938 311.207031 C 103.785156 312.601562 105.519531 313.953125 107.285156 315.257812 C 109.050781 316.566406 110.847656 317.832031 112.675781 319.050781 C 114.5 320.269531 116.359375 321.445312 118.242188 322.574219 C 120.128906 323.703125 122.039062 324.78125 123.980469 325.816406 C 125.917969 326.851562 127.878906 327.839844 129.867188 328.777344 C 131.855469 329.71875 133.863281 330.605469 135.894531 331.445312 C 137.925781 332.285156 139.976562 333.078125 142.042969 333.816406 C 144.113281 334.554688 146.199219 335.246094 148.304688 335.882812 C 150.40625 336.519531 152.527344 337.105469 154.65625 337.636719 C 156.789062 338.171875 158.933594 338.652344 161.089844 339.082031 C 163.246094 339.507812 165.410156 339.882812 167.585938 340.207031 C 169.757812 340.527344 171.941406 340.796875 174.128906 341.011719 C 176.316406 341.226562 178.507812 341.390625 180.703125 341.496094 C 182.898438 341.605469 185.09375 341.660156 187.292969 341.660156 C 189.492188 341.660156 191.6875 341.605469 193.882812 341.496094 C 196.078125 341.390625 198.269531 341.226562 200.457031 341.011719 C 202.644531 340.796875 204.824219 340.527344 207 340.207031 C 209.175781 339.882812 211.339844 339.507812 213.496094 339.082031 C 215.652344 338.652344 217.796875 338.171875 219.929688 337.640625 C 222.058594 337.105469 224.179688 336.519531 226.28125 335.882812 C 228.386719 335.246094 230.472656 334.558594 232.542969 333.816406 C 234.609375 333.078125 236.660156 332.289062 238.691406 331.449219 C 240.722656 330.609375 242.730469 329.71875 244.71875 328.78125 C 246.707031 327.839844 248.667969 326.855469 250.605469 325.820312 C 252.546875 324.785156 254.457031 323.703125 256.34375 322.574219 C 258.226562 321.445312 260.085938 320.273438 261.914062 319.050781 C 263.738281 317.832031 265.535156 316.570312 267.300781 315.261719 C 269.066406 313.953125 270.800781 312.605469 272.5 311.210938 C 274.199219 309.820312 275.863281 308.386719 277.492188 306.910156 C 279.121094 305.4375 280.710938 303.921875 282.265625 302.371094 C 283.820312 300.820312 285.335938 299.230469 286.8125 297.601562 C 288.289062 295.976562 289.722656 294.3125 291.117188 292.617188 C 292.511719 290.921875 293.863281 289.191406 295.171875 287.425781 C 296.484375 285.664062 297.75 283.871094 298.96875 282.042969 C 300.191406 280.21875 301.367188 278.363281 302.496094 276.480469 C 303.625 274.597656 304.710938 272.6875 305.746094 270.753906 C 306.78125 268.816406 307.769531 266.855469 308.710938 264.871094 C 309.648438 262.886719 310.539062 260.882812 311.382812 258.851562 C 312.222656 256.824219 313.015625 254.777344 313.753906 252.710938 C 314.496094 250.644531 315.183594 248.558594 315.820312 246.457031 C 316.460938 244.359375 317.046875 242.242188 317.582031 240.113281 C 318.113281 237.984375 318.597656 235.84375 319.023438 233.6875 C 319.453125 231.535156 319.828125 229.375 320.152344 227.203125 C 320.476562 225.03125 320.742188 222.851562 320.960938 220.667969 C 321.175781 218.484375 321.335938 216.292969 321.445312 214.101562 C 321.550781 211.910156 321.605469 209.714844 321.605469 207.519531 C 321.605469 205.324219 321.550781 203.128906 321.445312 200.9375 C 321.335938 198.746094 321.175781 196.554688 320.960938 194.371094 C 320.746094 192.1875 320.476562 190.007812 320.152344 187.835938 C 319.832031 185.664062 319.453125 183.503906 319.027344 181.347656 C 318.597656 179.195312 318.117188 177.054688 317.582031 174.925781 C 317.046875 172.796875 316.460938 170.679688 315.824219 168.578125 C 315.1875 166.480469 314.496094 164.394531 313.753906 162.328125 C 313.015625 160.261719 312.222656 158.214844 311.382812 156.183594 C 310.542969 154.15625 309.652344 152.152344 308.710938 150.167969 C 307.773438 148.179688 306.785156 146.222656 305.75 144.285156 C 304.710938 142.347656 303.628906 140.4375 302.5 138.554688 C 301.367188 136.671875 300.191406 134.820312 298.972656 132.992188 C 297.75 131.167969 296.484375 129.375 295.175781 127.609375 C 293.867188 125.847656 292.515625 124.117188 291.121094 122.421875 C 289.726562 120.722656 288.289062 119.0625 286.816406 117.433594 C 285.339844 115.808594 283.824219 114.21875 282.269531 112.667969 C 280.714844 111.113281 279.125 109.601562 277.496094 108.125 C 275.867188 106.652344 274.203125 105.21875 272.503906 103.824219 C 270.804688 102.433594 269.070312 101.082031 267.304688 99.773438 C 265.539062 98.46875 263.742188 97.203125 261.917969 95.984375 C 260.089844 94.765625 258.230469 93.589844 256.347656 92.460938 C 254.460938 91.332031 252.550781 90.25 250.609375 89.214844 C 248.671875 88.179688 246.710938 87.195312 244.722656 86.253906 C 242.734375 85.316406 240.726562 84.425781 238.695312 83.585938 C 236.664062 82.746094 234.613281 81.957031 232.546875 81.21875 C 230.476562 80.476562 228.390625 79.789062 226.285156 79.152344 C 224.183594 78.515625 222.066406 77.929688 219.933594 77.394531 C 217.800781 76.863281 215.65625 76.382812 213.5 75.953125 C 211.34375 75.523438 209.179688 75.148438 207.003906 74.828125 C 204.832031 74.503906 202.648438 74.238281 200.460938 74.023438 C 198.273438 73.804688 196.082031 73.644531 193.886719 73.535156 C 191.691406 73.429688 189.496094 73.375 187.296875 73.375 C 185.097656 73.375 182.902344 73.429688 180.707031 73.535156 C 178.511719 73.644531 176.320312 73.804688 174.132812 74.019531 C 171.945312 74.234375 169.765625 74.503906 167.589844 74.828125 C 165.414062 75.148438 163.25 75.523438 161.09375 75.953125 C 158.9375 76.378906 156.792969 76.863281 154.664062 77.394531 C 152.53125 77.929688 150.414062 78.511719 148.308594 79.152344 C 146.207031 79.789062 144.117188 80.476562 142.050781 81.214844 C 139.980469 81.957031 137.929688 82.746094 135.898438 83.585938 C 133.867188 84.425781 131.859375 85.316406 129.871094 86.253906 C 127.882812 87.191406 125.921875 88.179688 123.984375 89.214844 C 122.042969 90.25 120.132812 91.328125 118.246094 92.457031 C 116.363281 93.585938 114.503906 94.761719 112.679688 95.980469 C 110.851562 97.199219 109.054688 98.464844 107.289062 99.773438 C 105.523438 101.078125 103.789062 102.429688 102.089844 103.824219 C 100.390625 105.214844 98.726562 106.648438 97.097656 108.121094 C 95.46875 109.597656 93.878906 111.109375 92.324219 112.664062 Z M 92.324219 112.664062 " fill-opacity="1" fill-rule="nonzero"/><path fill="#ce2727" d="M 97.179688 117.511719 C 95.703125 118.984375 94.265625 120.492188 92.867188 122.035156 C 91.464844 123.578125 90.101562 125.15625 88.78125 126.765625 C 87.457031 128.375 86.171875 130.019531 84.929688 131.691406 C 83.6875 133.363281 82.488281 135.066406 81.328125 136.800781 C 80.171875 138.53125 79.054688 140.289062 77.980469 142.078125 C 76.910156 143.863281 75.882812 145.675781 74.898438 147.511719 C 73.914062 149.351562 72.976562 151.210938 72.085938 153.09375 C 71.195312 154.976562 70.347656 156.878906 69.550781 158.804688 C 68.753906 160.730469 68.003906 162.671875 67.300781 164.632812 C 66.597656 166.59375 65.941406 168.574219 65.335938 170.566406 C 64.730469 172.558594 64.175781 174.566406 63.667969 176.585938 C 63.164062 178.609375 62.707031 180.640625 62.296875 182.683594 C 61.890625 184.726562 61.535156 186.777344 61.230469 188.839844 C 60.921875 190.898438 60.667969 192.964844 60.464844 195.039062 C 60.257812 197.113281 60.105469 199.1875 60.003906 201.269531 C 59.902344 203.351562 59.847656 205.429688 59.847656 207.515625 C 59.847656 209.597656 59.898438 211.679688 60.003906 213.761719 C 60.105469 215.839844 60.257812 217.917969 60.460938 219.992188 C 60.667969 222.0625 60.921875 224.128906 61.226562 226.191406 C 61.535156 228.25 61.890625 230.304688 62.296875 232.347656 C 62.703125 234.390625 63.160156 236.421875 63.667969 238.441406 C 64.175781 240.464844 64.730469 242.46875 65.335938 244.464844 C 65.941406 246.457031 66.597656 248.433594 67.296875 250.394531 C 68 252.355469 68.75 254.300781 69.550781 256.226562 C 70.347656 258.148438 71.191406 260.054688 72.085938 261.9375 C 72.976562 263.820312 73.914062 265.679688 74.898438 267.515625 C 75.878906 269.355469 76.90625 271.164062 77.980469 272.953125 C 79.050781 274.738281 80.167969 276.5 81.328125 278.230469 C 82.484375 279.960938 83.6875 281.664062 84.929688 283.339844 C 86.171875 285.011719 87.453125 286.652344 88.777344 288.265625 C 90.101562 289.875 91.460938 291.449219 92.863281 292.996094 C 94.261719 294.539062 95.699219 296.046875 97.175781 297.519531 C 98.652344 298.992188 100.160156 300.429688 101.707031 301.828125 C 103.25 303.226562 104.832031 304.585938 106.441406 305.90625 C 108.054688 307.230469 109.699219 308.511719 111.375 309.75 C 113.050781 310.992188 114.753906 312.191406 116.488281 313.347656 C 118.222656 314.507812 119.984375 315.621094 121.773438 316.691406 C 123.5625 317.761719 125.375 318.789062 127.214844 319.769531 C 129.054688 320.753906 130.917969 321.6875 132.804688 322.582031 C 134.6875 323.472656 136.59375 324.316406 138.523438 325.113281 C 140.449219 325.910156 142.394531 326.660156 144.359375 327.359375 C 146.320312 328.0625 148.300781 328.714844 150.296875 329.320312 C 152.292969 329.925781 154.304688 330.480469 156.328125 330.988281 C 158.347656 331.492188 160.382812 331.949219 162.429688 332.355469 C 164.476562 332.761719 166.53125 333.117188 168.59375 333.421875 C 170.65625 333.730469 172.726562 333.984375 174.800781 334.1875 C 176.875 334.394531 178.957031 334.546875 181.039062 334.648438 C 183.121094 334.75 185.207031 334.800781 187.292969 334.800781 C 189.378906 334.800781 191.464844 334.75 193.546875 334.648438 C 195.628906 334.546875 197.710938 334.394531 199.785156 334.1875 C 201.859375 333.984375 203.929688 333.730469 205.992188 333.425781 C 208.054688 333.117188 210.109375 332.761719 212.15625 332.355469 C 214.203125 331.949219 216.238281 331.492188 218.261719 330.988281 C 220.28125 330.480469 222.292969 329.925781 224.289062 329.320312 C 226.285156 328.71875 228.265625 328.0625 230.226562 327.363281 C 232.191406 326.660156 234.136719 325.910156 236.066406 325.113281 C 237.992188 324.316406 239.898438 323.472656 241.785156 322.582031 C 243.667969 321.691406 245.53125 320.753906 247.371094 319.773438 C 249.210938 318.792969 251.023438 317.765625 252.8125 316.695312 C 254.601562 315.621094 256.363281 314.507812 258.097656 313.351562 C 259.832031 312.195312 261.539062 310.996094 263.210938 309.753906 C 264.886719 308.511719 266.53125 307.230469 268.144531 305.910156 C 269.757812 304.589844 271.335938 303.230469 272.882812 301.832031 C 274.425781 300.429688 275.9375 298.996094 277.410156 297.523438 C 278.886719 296.050781 280.324219 294.542969 281.726562 292.996094 C 283.125 291.453125 284.488281 289.878906 285.8125 288.265625 C 287.132812 286.65625 288.417969 285.015625 289.660156 283.34375 C 290.902344 281.667969 292.101562 279.964844 293.261719 278.234375 C 294.421875 276.503906 295.535156 274.742188 296.609375 272.957031 C 297.679688 271.167969 298.707031 269.359375 299.691406 267.519531 C 300.675781 265.683594 301.613281 263.824219 302.503906 261.941406 C 303.394531 260.058594 304.242188 258.152344 305.039062 256.230469 C 305.835938 254.304688 306.585938 252.359375 307.289062 250.398438 C 307.992188 248.4375 308.648438 246.460938 309.253906 244.46875 C 309.859375 242.472656 310.414062 240.46875 310.921875 238.445312 C 311.429688 236.425781 311.886719 234.394531 312.292969 232.351562 C 312.699219 230.308594 313.054688 228.257812 313.359375 226.195312 C 313.667969 224.136719 313.921875 222.066406 314.128906 219.996094 C 314.332031 217.921875 314.484375 215.84375 314.585938 213.765625 C 314.691406 211.683594 314.742188 209.601562 314.742188 207.519531 C 314.742188 205.4375 314.691406 203.355469 314.585938 201.273438 C 314.484375 199.191406 314.332031 197.117188 314.128906 195.042969 C 313.921875 192.96875 313.667969 190.902344 313.363281 188.84375 C 313.054688 186.78125 312.699219 184.730469 312.292969 182.6875 C 311.886719 180.644531 311.429688 178.613281 310.921875 176.589844 C 310.414062 174.570312 309.859375 172.5625 309.253906 170.570312 C 308.648438 168.578125 307.996094 166.597656 307.292969 164.636719 C 306.589844 162.675781 305.839844 160.734375 305.039062 158.808594 C 304.242188 156.882812 303.398438 154.980469 302.503906 153.097656 C 301.613281 151.214844 300.675781 149.355469 299.695312 147.515625 C 298.710938 145.679688 297.683594 143.867188 296.609375 142.082031 C 295.539062 140.292969 294.421875 138.535156 293.265625 136.804688 C 292.105469 135.070312 290.90625 133.367188 289.660156 131.695312 C 288.417969 130.023438 287.136719 128.378906 285.8125 126.769531 C 284.492188 125.160156 283.128906 123.582031 281.726562 122.039062 C 280.328125 120.496094 278.890625 118.988281 277.414062 117.515625 C 275.941406 116.042969 274.429688 114.605469 272.882812 113.207031 C 271.339844 111.808594 269.761719 110.445312 268.148438 109.125 C 266.535156 107.804688 264.890625 106.523438 263.214844 105.28125 C 261.542969 104.042969 259.835938 102.84375 258.101562 101.683594 C 256.367188 100.527344 254.605469 99.414062 252.816406 98.34375 C 251.027344 97.269531 249.214844 96.246094 247.375 95.261719 C 245.535156 94.28125 243.671875 93.34375 241.789062 92.453125 C 239.902344 91.5625 237.996094 90.71875 236.070312 89.921875 C 234.140625 89.125 232.195312 88.375 230.234375 87.671875 C 228.269531 86.972656 226.289062 86.316406 224.292969 85.714844 C 222.296875 85.109375 220.289062 84.554688 218.265625 84.046875 C 216.242188 83.539062 214.207031 83.085938 212.160156 82.679688 C 210.113281 82.273438 208.0625 81.914062 205.996094 81.609375 C 203.933594 81.304688 201.863281 81.050781 199.789062 80.84375 C 197.714844 80.640625 195.632812 80.488281 193.550781 80.386719 C 191.46875 80.28125 189.382812 80.230469 187.296875 80.230469 C 185.210938 80.230469 183.128906 80.28125 181.042969 80.386719 C 178.960938 80.488281 176.882812 80.640625 174.804688 80.84375 C 172.730469 81.046875 170.660156 81.304688 168.597656 81.609375 C 166.535156 81.914062 164.480469 82.269531 162.433594 82.675781 C 160.386719 83.082031 158.355469 83.539062 156.332031 84.046875 C 154.308594 84.550781 152.296875 85.109375 150.300781 85.710938 C 148.304688 86.316406 146.324219 86.96875 144.363281 87.671875 C 142.398438 88.375 140.453125 89.121094 138.527344 89.921875 C 136.597656 90.71875 134.691406 91.5625 132.808594 92.453125 C 130.921875 93.34375 129.058594 94.277344 127.21875 95.261719 C 125.378906 96.242188 123.566406 97.269531 121.777344 98.339844 C 119.988281 99.410156 118.226562 100.523438 116.492188 101.683594 C 114.757812 102.839844 113.054688 104.039062 111.378906 105.28125 C 109.703125 106.519531 108.058594 107.800781 106.445312 109.121094 C 104.832031 110.445312 103.253906 111.804688 101.710938 113.203125 C 100.164062 114.601562 98.652344 116.039062 97.179688 117.511719 Z M 97.179688 117.511719 " fill-opacity="1" fill-rule="nonzero"/><path fill="#eca457" d="M 186.105469 317.804688 C 202.683594 319.261719 219.773438 318.824219 236.28125 318.167969 C 233.871094 319.261719 230.730469 319.554688 228.320312 320.648438 C 230.4375 320.867188 232.628906 321.011719 234.964844 321.011719 C 231.605469 323.710938 226.859375 325.023438 222.988281 327.285156 C 225.398438 327.503906 227.734375 326.628906 229.851562 327.066406 C 224.8125 330.566406 216.121094 333.632812 207.210938 332.027344 C 201.589844 331.003906 195.746094 327.578125 190.269531 325.023438 C 184.425781 322.253906 179.019531 319.40625 174.347656 317.074219 C 182.597656 317 186.910156 321.886719 193.554688 322.761719 C 191.363281 320.792969 188.515625 319.554688 186.105469 317.804688 Z M 186.105469 317.804688 " fill-opacity="1" fill-rule="nonzero"/><path fill="#ffffff" d="M 152.875 301.097656 C 160.617188 305.039062 170.546875 305.402344 180.773438 306.570312 C 191 307.738281 201.878906 307.738281 212.691406 307.738281 C 223.5 307.738281 234.308594 307.738281 244.605469 306.570312 C 254.757812 305.402344 264.761719 304.964844 272.359375 300.878906 C 273.015625 300.515625 271.703125 299.277344 272.722656 299.203125 C 277.984375 300.441406 283.824219 301.097656 287.332031 304.164062 C 285.285156 306.863281 281.414062 307.738281 278.054688 308.539062 C 266.589844 311.164062 254.027344 312.039062 241.027344 312.695312 C 223.5 313.644531 204.4375 314.230469 187.054688 313.0625 C 173.542969 312.1875 159.519531 311.3125 147.90625 308.683594 C 144.183594 307.882812 140.019531 307.082031 137.828125 304.164062 C 141.335938 301.027344 147.25 300.441406 152.65625 299.203125 C 153.238281 299.785156 151.925781 300.660156 152.875 301.097656 Z M 152.875 301.097656 " fill-opacity="1" fill-rule="nonzero"/><path fill="#b3b2b3" d="M 207.429688 239.609375 C 206.480469 237.859375 206.042969 236.617188 206.480469 235.230469 C 207.722656 231.292969 216.558594 231.074219 218.460938 234.503906 C 219.191406 235.816406 218.96875 238.296875 217.875 239.460938 C 215.976562 241.359375 209.769531 241.140625 207.429688 239.609375 Z M 207.429688 239.609375 " fill-opacity="1" fill-rule="nonzero"/><path fill="#ffffff" d="M 213.710938 227.5 C 225.617188 225.75 237.449219 222.976562 242.78125 216.121094 C 242.78125 215.976562 242.78125 215.902344 243 215.902344 C 251.105469 221.519531 258.335938 230.054688 263.886719 240.191406 C 269.363281 250.257812 272.941406 262.074219 273.746094 274.695312 C 273.894531 277.320312 273.964844 279.726562 273.746094 282.0625 C 273.601562 283.738281 273.453125 286 272.578125 287.75 C 268.269531 259.011719 251.835938 242.308594 221.453125 239.535156 C 225.980469 230.34375 214.371094 226.332031 206.992188 229.105469 C 203.339844 230.492188 202.097656 234.867188 203.558594 239.535156 C 197.132812 239.972656 191.507812 241.285156 186.25 242.964844 C 180.917969 238.734375 175.953125 233.554688 172.007812 228.15625 C 170.695312 226.332031 169.308594 224.4375 168.578125 222.25 C 171.9375 224.144531 175.585938 227.207031 179.75 228.15625 C 189.757812 230.34375 202.902344 229.105469 213.710938 227.5 Z M 213.710938 227.5 " fill-opacity="1" fill-rule="nonzero"/><path fill="#ffffff" d="M 238.542969 213.640625 C 235.695312 216.195312 231.898438 217.507812 228.101562 218.964844 C 216.707031 223.269531 202.683594 225.238281 186.46875 224.65625 C 186.398438 222.976562 188.515625 222.03125 189.683594 221.082031 C 211.449219 220.644531 227.296875 214.226562 238.472656 203.210938 C 238.324219 206.492188 238.691406 209.921875 238.542969 213.640625 Z M 238.542969 213.640625 " fill-opacity="1" fill-rule="nonzero"/><path fill="#c7c7c7" d="M 212.761719 243.984375 C 215.390625 243.984375 218.019531 243.621094 220.722656 243.765625 C 233.796875 244.570312 245.117188 249.746094 253.222656 257.625 C 262.9375 267.109375 270.167969 280.96875 268.414062 298.765625 C 252.710938 302.921875 232.628906 304.671875 212.761719 304.671875 C 192.824219 304.671875 172.667969 303.070312 156.890625 298.765625 C 155.136719 287.3125 158.351562 278.195312 162.367188 270.316406 C 168.136719 259.085938 177.996094 250.988281 189.902344 246.609375 C 196.621094 244.203125 204 244.058594 212.761719 243.984375 Z M 212.761719 243.984375 " fill-opacity="1" fill-rule="nonzero"/><path fill="#ffffff" d="M 236.132812 115.386719 C 221.820312 107.070312 205.019531 100.726562 184.863281 99.632812 C 176.902344 99.195312 170.988281 100.140625 164.558594 101.164062 C 165.945312 95.109375 167.40625 89.199219 168.722656 83.148438 C 185.300781 86.648438 205.679688 84.242188 217.730469 78.1875 C 230.730469 80.886719 241.832031 85.625 252.859375 91.828125 C 260.453125 96.058594 267.394531 101.238281 273.164062 107.363281 C 274.769531 109.042969 278.566406 112.398438 278.640625 114 C 278.714844 114.65625 277.835938 116.117188 277.324219 117.429688 C 275.9375 120.859375 274.550781 124.871094 273.527344 127.859375 C 271.992188 132.457031 269.875 138.074219 269.511719 142.8125 C 269.363281 145.074219 270.460938 147.847656 268.5625 149.816406 C 261.550781 135.957031 250.375 123.628906 236.132812 115.386719 Z M 236.132812 115.386719 " fill-opacity="1" fill-rule="nonzero"/><path fill="#ffffff" d="M 297.484375 112.542969 C 292.371094 114.875 284.992188 113.929688 280.976562 111.230469 C 279.152344 108.386719 276.8125 105.175781 274.550781 102.914062 C 273.820312 102.183594 272.359375 101.457031 272.652344 100.433594 C 277.761719 100.070312 282.804688 98.320312 283.460938 94.527344 C 279.445312 96.421875 273.234375 98.828125 267.902344 96.785156 C 266.953125 96.421875 266.152344 95.328125 265.054688 94.527344 C 261.988281 92.265625 258.191406 90.078125 255.5625 88.105469 C 259.285156 86.648438 262.207031 84.3125 263.375 80.300781 C 260.164062 83.148438 256.875 85.917969 249.863281 85.042969 C 242.632812 80.738281 234.160156 77.675781 225.324219 74.976562 C 233.140625 71.039062 244.3125 68.921875 255.925781 69.871094 C 259.578125 70.164062 262.9375 71.328125 266.371094 71.402344 C 260.671875 68.046875 253.660156 65.640625 244.3125 66.078125 C 234.160156 66.589844 225.398438 70.089844 216.78125 73.082031 C 208.089844 76.070312 199.6875 79.5 189.390625 80.300781 C 164.414062 82.199219 149.515625 71.257812 146.082031 49.738281 C 144.914062 61.554688 150.976562 70.746094 156.890625 76.65625 C 158.863281 78.625 160.835938 80.011719 163.171875 81.394531 C 162.585938 84.242188 161.855469 86.867188 161.492188 89.929688 C 154.261719 86.792969 149.148438 81.46875 145.132812 74.757812 C 141.042969 67.976562 138.195312 58.929688 138.851562 49.519531 C 139.875 34.929688 148.785156 27.199219 161.855469 24.28125 C 168.210938 22.894531 176.683594 21.875 184.058594 22.75 C 199.398438 24.574219 211.519531 27.273438 223.9375 30.917969 C 227.808594 32.015625 231.972656 33.691406 236.5 32.453125 C 233.652344 31.285156 230.144531 30.699219 227.371094 29.386719 C 250.449219 22.53125 272.722656 30.335938 286.234375 42.296875 C 297.847656 52.511719 305.003906 67.976562 302.960938 88.761719 C 308.21875 94.234375 315.085938 101.820312 311.871094 112.324219 C 309.605469 119.765625 303.472656 124.140625 295.511719 126.183594 C 291.714844 131.214844 285.722656 133.988281 276.304688 133.402344 C 278.128906 127.277344 280.539062 121.734375 282.363281 115.535156 C 287.550781 117.210938 295.730469 117.355469 297.484375 112.542969 Z M 297.484375 112.542969 " fill-opacity="1" fill-rule="nonzero"/><path fill="#ffffff" d="M 166.96875 214.808594 C 171.058594 217.214844 175.878906 218.820312 180.992188 220.132812 C 181.503906 221.519531 182.089844 222.832031 182.308594 224.507812 C 176.246094 222.25 171.277344 218.894531 166.75 215.246094 C 166.75 214.953125 166.457031 214.734375 166.96875 214.808594 Z M 166.96875 214.808594 " fill-opacity="1" fill-rule="nonzero"/><path fill="#ffffff" d="M 210.863281 336.769531 C 211.007812 336.769531 211.082031 336.769531 211.230469 336.769531 C 225.46875 338.957031 237.011719 333.703125 239.710938 322.324219 C 242.339844 319.335938 249.0625 320.503906 251.105469 317 C 255.488281 316.636719 259.871094 316.269531 263.8125 315.46875 C 254.757812 329.253906 235.476562 343.625 211.375 337.058594 C 211.449219 336.839844 209.695312 337.058594 210.863281 336.769531 Z M 210.863281 336.769531 " fill-opacity="1" fill-rule="nonzero"/><path fill="#4d4e4e" d="M 191.289062 111.59375 C 191.949219 114.292969 190.339844 116.410156 189.976562 118.960938 C 185.738281 114.585938 176.464844 110.71875 168.285156 113.855469 C 167.992188 112.03125 167.554688 110.425781 167.335938 108.53125 C 169.015625 106.34375 171.863281 104.519531 175.515625 104.152344 C 181.867188 103.570312 190.414062 108.09375 191.289062 111.59375 Z M 191.289062 111.59375 " fill-opacity="1" fill-rule="nonzero"/><path fill="#4d4e4e" d="M 247.527344 128.445312 C 247.527344 128.296875 247.527344 128.226562 247.746094 128.226562 C 249.570312 129.976562 251.542969 131.652344 253.441406 133.695312 C 256.65625 137.125 259.796875 141.28125 262.574219 145.441406 C 263.742188 147.191406 266.515625 150.253906 266.589844 151.859375 C 266.589844 153.609375 264.691406 155.066406 264.472656 156.601562 C 262.425781 154.921875 258.921875 153.972656 255.925781 154.703125 C 249.132812 156.453125 247.671875 164.625 246.652344 171.992188 C 245.410156 173.960938 244.3125 176.074219 242.121094 177.097656 C 244.242188 171.625 244.53125 164.550781 244.242188 157.546875 C 243.582031 146.972656 244.824219 136.539062 247.527344 128.445312 Z M 247.527344 128.445312 " fill-opacity="1" fill-rule="nonzero"/><path fill="#4d4e4e" d="M 210.425781 131.070312 C 214.296875 124.578125 228.246094 124.066406 235.332031 128.007812 C 234.890625 131.652344 233.796875 134.71875 232.261719 137.269531 C 226.640625 134.425781 220.285156 130.558594 210.425781 131.070312 Z M 210.425781 131.070312 " fill-opacity="1" fill-rule="nonzero"/><path fill="#4d4e4e" d="M 172.667969 161.488281 C 174.785156 163.164062 176.683594 164.550781 179.3125 165.28125 C 182.234375 166.082031 185.449219 165.789062 189.027344 166.226562 C 189.828125 166.300781 190.777344 166.8125 191.65625 166.957031 C 192.75 167.175781 194.066406 167.03125 194.867188 167.324219 C 196.109375 167.832031 197.207031 169.582031 198.300781 170.386719 C 202.027344 173.085938 206.699219 175.347656 212.324219 175.855469 C 220.796875 176.660156 225.691406 173.230469 230 169.949219 C 227.808594 177.242188 221.890625 181.984375 214.078125 183.441406 C 201.734375 185.703125 189.539062 180.597656 184.058594 174.324219 C 183.257812 173.449219 182.015625 171.625 181.210938 171.480469 C 180.261719 171.261719 178.949219 171.917969 177.996094 172.0625 C 171.425781 173.011719 164.707031 171.625 160.6875 169 C 154.1875 164.769531 151.046875 152.296875 154.773438 142.59375 C 154.1875 154.703125 161.855469 160.175781 172.667969 161.488281 Z M 172.667969 161.488281 " fill-opacity="1" fill-rule="nonzero"/><path fill="#eca457" d="M 115.480469 140.988281 C 115.042969 138 114.75 134.28125 117.015625 132.820312 C 118.621094 131.800781 121.613281 132.382812 121.980469 134.132812 C 122.34375 135.882812 120.738281 137.5625 120.8125 139.605469 C 118.621094 139.019531 116.792969 140.113281 115.480469 140.988281 Z M 115.480469 140.988281 " fill-opacity="1" fill-rule="nonzero"/><path fill="#eca457" d="M 147.761719 136.394531 C 151.265625 132.164062 155.429688 128.296875 157.621094 123.339844 C 159.957031 118.011719 161.347656 112.46875 163.097656 105.6875 C 165.070312 104.882812 167.042969 104.082031 169.527344 103.789062 C 168.648438 105.25 165.945312 105.46875 165.363281 108.167969 C 164.996094 109.769531 165.945312 115.460938 167.261719 115.972656 C 168.722656 116.480469 170.621094 114.804688 172.007812 114.65625 C 177.121094 113.929688 183.257812 115.679688 186.46875 118.230469 C 188.003906 119.472656 188.148438 120.929688 190.046875 121.804688 C 191.582031 119.253906 193.699219 115.386719 193.261719 111.960938 C 192.679688 106.851562 186.398438 105.175781 182.597656 103.058594 C 210.132812 104.226562 229.050781 114.148438 245.480469 126.402344 C 243.65625 131.871094 241.027344 138.074219 240.515625 145.949219 C 240.003906 154.265625 241.902344 162.871094 241.101562 170.605469 C 240.808594 173.085938 237.59375 179.210938 238.835938 180.453125 C 239.859375 181.472656 241.976562 180.160156 243 179.503906 C 248.695312 176.003906 249.71875 168.707031 251.910156 162.214844 C 254.832031 158.789062 261.476562 160.027344 263.886719 162.582031 C 271.628906 170.96875 264.691406 192.050781 252.492188 190.445312 C 249.132812 190.007812 247.964844 186.726562 245.847656 184.390625 C 238.691406 201.167969 225.46875 212.035156 205.167969 216.046875 C 198.375 217.359375 190.488281 218.675781 182.964844 217.578125 C 176.976562 216.703125 171.058594 214.003906 166.238281 211.308594 C 161.125 208.535156 156.746094 205.324219 153.167969 201.460938 C 145.714844 193.507812 139.363281 183.222656 137.390625 171.117188 C 134.835938 154.777344 140.605469 145.003906 147.761719 136.394531 Z M 252.273438 183.441406 C 256.511719 183.296875 257.824219 176.441406 254.757812 173.375 C 255.925781 171.261719 257.242188 167.25 260.089844 167.324219 C 262.5 167.394531 263.59375 170.386719 263.300781 173.960938 C 265.859375 170.460938 263.011719 164.988281 259.140625 165.425781 C 256.949219 165.644531 255.34375 167.90625 254.027344 169.800781 C 253.222656 170.96875 251.910156 172.5 251.910156 173.59375 C 251.980469 175.054688 253.953125 176.367188 254.171875 178.117188 C 254.464844 180.378906 253.953125 181.984375 252.273438 183.441406 Z M 235.695312 135.082031 C 236.351562 133.039062 237.449219 130.414062 236.863281 128.226562 C 235.988281 125.234375 229.121094 123.921875 225.691406 123.703125 C 219.480469 123.191406 214.441406 125.015625 211.082031 127.714844 C 209.402344 129.101562 207.429688 130.777344 207.066406 132.820312 C 213.640625 132.894531 219.042969 133.476562 224.375 135.664062 C 225.46875 136.101562 227.003906 137.050781 228.539062 137.925781 C 229.707031 138.582031 231.972656 140.261719 232.699219 140.1875 C 234.453125 140.042969 235.183594 136.613281 235.695312 135.082031 Z M 183.839844 213.277344 C 191.363281 214.003906 198.230469 211.671875 201.296875 206.417969 C 195.890625 207.660156 191.800781 209.773438 184.9375 209.265625 C 180.042969 208.898438 175.953125 207.148438 172.375 205.253906 C 171.058594 204.523438 169.964844 203.574219 168.578125 202.992188 C 170.476562 207.734375 176.902344 212.546875 183.839844 213.277344 Z M 161.855469 172.210938 C 160.46875 188.769531 171.644531 202.625 186.90625 203.941406 C 201.515625 205.179688 210.351562 196.863281 213.492188 186.140625 C 223.570312 183.878906 233.722656 177.609375 230.949219 164.550781 C 227.660156 176.367188 204.875 174.105469 198.667969 166.445312 C 202.464844 164.914062 202.320312 156.964844 197.9375 156.234375 C 201.148438 160.394531 198.886719 165.207031 192.457031 164.039062 C 191.363281 163.820312 190.339844 163.238281 189.027344 163.09375 C 186.617188 162.871094 183.988281 163.3125 181.796875 163.09375 C 174.785156 162.289062 169.890625 154.046875 173.835938 148.136719 C 177.414062 142.742188 188.734375 146.386719 188.296875 136.757812 C 187.492188 137.925781 187.199219 139.75 185.8125 140.769531 C 182.015625 143.6875 176.539062 141.9375 172.886719 145.292969 C 169.746094 148.210938 168.578125 154.339844 171.207031 158.933594 C 162.660156 158.058594 154.773438 150.253906 157.183594 139.894531 C 157.476562 138.730469 158.277344 137.5625 158.863281 136.25 C 158.714844 136.25 158.644531 136.25 158.496094 136.25 C 147.03125 142.375 149.441406 168.707031 161.855469 172.210938 Z M 161.855469 172.210938 " fill-opacity="1" fill-rule="nonzero"/><path fill="#eca457" d="M 72.753906 137.34375 C 73.339844 134.863281 74.726562 132.238281 75.601562 129.539062 C 76.480469 126.839844 77.355469 124.214844 78.230469 121.585938 C 80.058594 116.191406 81.082031 109.988281 85.097656 107.144531 C 87.433594 108.605469 87.652344 112.761719 87.363281 115.898438 C 87.070312 119.328125 85.390625 124.285156 84.148438 127.058594 C 82.613281 130.632812 80.132812 133.332031 78.671875 135.59375 C 82.761719 134.644531 85.023438 131.070312 86.851562 127.789062 C 88.75 124.503906 90.136719 120.347656 90.867188 115.679688 C 91.085938 114 90.792969 112.179688 91.085938 110.355469 C 91.453125 107.945312 92.765625 105.101562 93.933594 102.550781 C 94.59375 101.164062 97.003906 96.785156 99.046875 97.078125 C 100.433594 97.296875 101.019531 99.851562 101.164062 101.601562 C 102.332031 117.722656 92.984375 127.277344 83.710938 133.695312 C 85.828125 133.988281 87.871094 133.84375 89.40625 133.332031 C 97.003906 130.558594 102.699219 117.792969 104.597656 109.40625 C 105.765625 104.226562 107.007812 98.390625 111.023438 96.128906 C 114.53125 94.160156 116.355469 99.121094 115.992188 102.183594 C 115.40625 106.925781 112.703125 110.644531 110.292969 115.09375 C 108.25 118.886719 106.132812 123.921875 103.0625 126.695312 C 100.289062 129.171875 95.324219 129.757812 92.839844 131.800781 C 95.175781 132.457031 98.683594 133.332031 100.652344 132.527344 C 106.203125 130.269531 110.367188 123.410156 113.214844 118.667969 C 120.8125 117.136719 124.464844 123.777344 122.492188 131.726562 C 118.109375 129.027344 112.703125 132.675781 113.582031 138.730469 C 111.683594 135.082031 111.683594 128.515625 111.464844 123.777344 C 109.492188 125.671875 108.832031 128.808594 108.613281 132.527344 C 107.152344 132.382812 105.472656 131.507812 104.085938 131.945312 C 104.671875 134.71875 107.375 135.375 109.054688 137.050781 C 109.785156 139.96875 107.8125 141.867188 106.789062 143.6875 C 105.914062 143.03125 103.429688 142.742188 102.773438 143.90625 C 105.621094 145.148438 107.957031 146.824219 109.199219 149.597656 C 105.472656 151.203125 103.792969 154.777344 103.136719 159.445312 C 106.203125 157.109375 107.664062 153.171875 112.046875 152.222656 C 112.777344 153.316406 113.070312 154.777344 113.945312 155.652344 C 113.800781 152.152344 113.507812 147.554688 115.261719 145.441406 C 114.894531 150.691406 121.46875 153.390625 124.171875 149.234375 C 124.171875 153.171875 125.558594 157.695312 123.804688 160.394531 C 122.929688 161.777344 119.644531 163.164062 117.746094 163.96875 C 110.953125 166.886719 103.285156 170.53125 96.273438 171.917969 C 98.535156 173.230469 101.09375 174.324219 104.597656 174.398438 C 103.429688 176.730469 102.699219 179.503906 101.75 181.984375 C 92.984375 186.359375 78.378906 181.984375 73.632812 175.929688 C 71.148438 172.71875 72.902344 170.019531 73.632812 165.863281 C 76.113281 166.886719 78.304688 169.144531 81.007812 169.292969 C 76.992188 163.019531 71.878906 156.746094 71.878906 147.480469 C 71.804688 144.5625 71.953125 140.480469 72.753906 137.34375 Z M 92.109375 164.476562 C 93.789062 154.847656 88.75 148.796875 81.882812 146.460938 C 86.121094 150.835938 90.355469 156.964844 92.109375 164.476562 Z M 92.109375 164.476562 " fill-opacity="1" fill-rule="nonzero"/><path fill="#eca457" d="M 120.59375 149.890625 C 117.453125 150.179688 116.574219 147.117188 116.574219 143.25 C 120.59375 136.613281 126.875 149.378906 120.59375 149.890625 Z M 120.59375 149.890625 " fill-opacity="1" fill-rule="nonzero"/><path fill="#ed2a2f" d="M 192.386719 183.660156 C 193.042969 183.515625 193.699219 183.515625 194.066406 183.660156 C 198.59375 185.414062 204.363281 186.507812 210.570312 186.289062 C 208.453125 192.121094 204.65625 196.644531 198.59375 198.613281 C 192.75 200.511719 182.890625 200.511719 178.070312 197.300781 C 180.40625 190.519531 185.519531 185.265625 192.386719 183.660156 Z M 192.386719 183.660156 " fill-opacity="1" fill-rule="nonzero"/><path fill="#ffffff" d="M 187.273438 334.800781 C 151.195312 334.800781 118.695312 319.84375 95.46875 295.847656 C 97.222656 286.144531 100.507812 277.902344 104.234375 269.589844 C 112.414062 251.570312 120.007812 234.285156 131.621094 218.746094 C 127.75 220.132812 125.484375 223.851562 122.855469 226.917969 C 115.042969 235.960938 108.394531 246.828125 102.699219 258.0625 C 96.5625 260.46875 91.234375 262.804688 82.761719 262.222656 C 68.082031 261.273438 55.371094 255.21875 52.960938 241.503906 C 52.160156 236.910156 51.941406 231.292969 52.378906 225.386719 C 53.765625 206.710938 60.265625 188.988281 65.085938 172.28125 C 66.402344 167.6875 66.472656 164.113281 70.199219 162.433594 C 71 163.75 69.542969 164.476562 69.03125 165.28125 C 67.714844 167.394531 66.402344 171.917969 67.351562 175.492188 C 70.273438 187.089844 92.839844 192.851562 103.648438 185.703125 C 106.714844 183.660156 109.636719 179.285156 107.8125 174.105469 C 110.804688 174.542969 109.929688 178.484375 109.492188 180.742188 C 108.175781 188.695312 105.765625 196.207031 103.792969 203.136719 C 100.945312 213.203125 99.191406 223.78125 96.199219 233.117188 C 96.199219 233.335938 96.417969 233.191406 96.417969 233.117188 C 97.953125 231.292969 99.265625 229.25 100.582031 227.207031 C 99.414062 233.480469 98.902344 240.484375 97.511719 246.539062 C 102.699219 239.535156 105.109375 230.636719 105.472656 219.039062 C 105.546875 217.507812 104.964844 215.464844 105.253906 214.296875 C 105.472656 213.421875 107.519531 211.816406 108.6875 210.871094 C 117.378906 203.355469 127.53125 197.8125 140.605469 195.113281 C 147.324219 203.0625 154.042969 211.015625 162.078125 217.726562 C 167.117188 228.300781 173.835938 237.273438 182.234375 244.496094 C 173.980469 248.214844 167.261719 254.050781 162.078125 261.5625 C 156.304688 269.953125 151.851562 280.457031 152.214844 294.753906 C 149.148438 295.773438 145.058594 296.578125 141.1875 297.960938 C 138.414062 298.984375 133.007812 300.589844 132.863281 303.871094 C 132.644531 308.539062 140.894531 310.726562 145.207031 311.820312 C 147.617188 312.476562 150.464844 313.207031 153.386719 313.71875 C 156.234375 314.230469 159.445312 314.59375 161.710938 315.394531 C 163.683594 316.125 165.507812 317.65625 167.628906 318.605469 C 169.671875 319.554688 171.863281 320.574219 173.90625 321.449219 C 178.21875 323.347656 183.109375 324.734375 186.617188 326.773438 C 188.734375 328.015625 190.558594 329.910156 192.53125 331.515625 C 193.699219 332.464844 194.867188 333.414062 196.039062 334.359375 C 193.1875 334.726562 190.269531 334.800781 187.273438 334.800781 Z M 187.273438 334.800781 " fill-opacity="1" fill-rule="nonzero"/><path fill="#d08b40" d="M 91.160156 134.351562 C 87.945312 136.320312 80.863281 139.09375 77.28125 135.664062 C 77.792969 135.59375 78.378906 135.445312 78.890625 135.300781 C 78.816406 135.445312 78.742188 135.519531 78.671875 135.664062 C 82.761719 134.71875 85.023438 131.144531 86.851562 127.859375 C 88.75 124.578125 90.136719 120.421875 90.867188 115.753906 C 91.085938 114.148438 90.792969 112.398438 91.011719 110.71875 C 91.671875 112.03125 91.890625 113.78125 91.960938 115.386719 C 92.402344 121.660156 89.699219 126.984375 87.363281 130.996094 C 86.121094 131.945312 84.878906 132.894531 83.636719 133.769531 C 85.753906 134.0625 87.800781 133.914062 89.332031 133.402344 C 96.929688 130.632812 102.625 117.867188 104.523438 109.480469 C 104.964844 107.582031 105.402344 105.613281 105.984375 103.789062 C 106.351562 105.03125 106.351562 106.5625 106.277344 107.945312 C 105.695312 114.949219 100.875 125.234375 96.78125 129.390625 C 96.417969 129.757812 96.054688 130.046875 95.613281 130.339844 C 94.519531 130.777344 93.570312 131.289062 92.765625 131.871094 C 95.101562 132.527344 98.609375 133.402344 100.582031 132.601562 C 106.132812 130.339844 110.292969 123.484375 113.144531 118.742188 C 113.726562 118.597656 114.3125 118.523438 114.894531 118.523438 C 115.261719 118.597656 115.699219 118.816406 115.992188 119.105469 C 114.824219 121.585938 114.164062 126.621094 114.457031 131.800781 C 114.457031 132.382812 114.605469 132.894531 114.675781 133.402344 C 113.726562 134.789062 113.214844 136.613281 113.507812 138.800781 C 111.609375 135.15625 111.609375 128.589844 111.390625 123.847656 C 109.417969 125.746094 108.761719 128.882812 108.542969 132.601562 C 107.082031 132.457031 105.402344 131.582031 104.011719 132.019531 C 104.523438 134.425781 106.714844 135.226562 108.324219 136.539062 C 106.277344 136.394531 104.671875 135.8125 103.285156 135.007812 C 99.484375 136.539062 94.152344 135.738281 91.160156 134.351562 Z M 91.160156 134.351562 " fill-opacity="1" fill-rule="nonzero"/><path fill="#d08b40" d="M 110.292969 152.878906 C 110.734375 152.660156 111.242188 152.515625 111.828125 152.371094 C 112.558594 153.464844 112.851562 154.921875 113.726562 155.796875 C 113.652344 154.847656 113.652344 153.828125 113.582031 152.878906 C 113.800781 155.503906 114.53125 158.496094 115.40625 160.394531 C 112.703125 158.933594 109.929688 156.527344 110.292969 152.878906 Z M 110.292969 152.878906 " fill-opacity="1" fill-rule="nonzero"/><path fill="#d08b40" d="M 89.84375 144.785156 C 93.132812 144.5625 97.074219 143.46875 98.972656 144.417969 C 99.632812 147.261719 97.292969 148.066406 96.34375 150.691406 C 94.882812 154.410156 96.054688 159.738281 94.8125 163.601562 C 94.445312 164.695312 93.714844 165.9375 93.132812 166.8125 C 92.546875 167.613281 91.378906 169.144531 90.867188 168.925781 C 91.234375 166.957031 91.523438 164.769531 91.671875 162.582031 C 91.890625 163.238281 92.035156 163.894531 92.183594 164.550781 C 93.863281 154.921875 88.824219 148.867188 81.957031 146.535156 C 82.542969 147.117188 83.125 147.773438 83.78125 148.503906 C 82.6875 147.699219 81.738281 146.753906 81.007812 145.585938 C 83.125 144.199219 86.484375 145.003906 89.84375 144.785156 Z M 89.84375 144.785156 " fill-opacity="1" fill-rule="nonzero"/><path fill="#d08b40" d="M 198.667969 166.445312 C 202.097656 165.0625 202.320312 158.277344 199.03125 156.601562 C 199.25 156.601562 199.46875 156.601562 199.617188 156.601562 C 203.414062 160.683594 206.554688 165.644531 209.839844 169.875 C 210.5 170.75 211.449219 171.554688 211.960938 172.5 C 206.410156 171.699219 201.222656 169.511719 198.667969 166.445312 Z M 198.667969 166.445312 " fill-opacity="1" fill-rule="nonzero"/><path fill="#d08b40" d="M 254.683594 173.449219 C 255.851562 171.335938 257.167969 167.324219 260.015625 167.394531 C 261.84375 167.46875 262.9375 169.144531 263.230469 171.554688 C 263.375 177.535156 259.140625 182.714844 253.371094 183.515625 C 253.371094 183.441406 253.371094 183.371094 253.371094 183.296875 C 256.730469 182.058594 257.53125 176.148438 254.683594 173.449219 Z M 254.683594 173.449219 " fill-opacity="1" fill-rule="nonzero"/><path fill="#c7c7c7" d="M 212.761719 307.738281 C 223.570312 307.738281 234.382812 307.738281 244.679688 306.570312 C 254.832031 305.402344 264.835938 304.964844 272.433594 300.878906 C 272.722656 300.734375 272.652344 300.441406 272.578125 300.152344 C 274.550781 301.027344 276.59375 302.921875 276.59375 303.871094 C 276.59375 306.863281 270.242188 307.226562 266.371094 307.664062 C 245.042969 310.289062 220.648438 310.507812 198.957031 308.832031 C 187.929688 307.957031 177.121094 307.371094 168.136719 305.109375 C 172.226562 305.695312 176.539062 305.988281 180.917969 306.496094 C 191.070312 307.808594 201.878906 307.738281 212.761719 307.738281 Z M 212.761719 307.738281 " fill-opacity="1" fill-rule="nonzero"/><path fill="#b3b3b4" d="M 159.375 295.992188 C 159.519531 284.6875 162.515625 277.246094 167.335938 270.753906 C 168.648438 268.929688 169.964844 266.816406 171.863281 266.234375 C 169.671875 272.652344 167.773438 279.507812 167.335938 287.679688 C 171.132812 290.375 175.878906 291.472656 181.359375 292.636719 C 197.71875 296.140625 222.183594 294.605469 235.109375 288.84375 C 234.964844 274.476562 231.460938 263.097656 226.347656 253.757812 C 224.667969 250.621094 222.039062 248.214844 220.648438 245.007812 C 224.59375 245.078125 227.371094 246.683594 230.730469 248.214844 C 247.015625 255.582031 256.730469 269.078125 258.703125 290.886719 C 258.847656 292.929688 259.871094 298.109375 259.652344 300.878906 C 245.554688 303.652344 229.050781 304.746094 212.761719 304.746094 C 193.847656 304.746094 174.710938 303.289062 159.300781 299.496094 C 159.226562 298.328125 159.300781 297.015625 159.375 295.992188 Z M 159.375 295.992188 " fill-opacity="1" fill-rule="nonzero"/><path fill="#d08b40" d="M 193.773438 112.105469 C 194.796875 116.191406 194.941406 121.367188 194.136719 125.597656 C 193.117188 130.925781 190.632812 134.351562 188.222656 137.925781 C 188.222656 137.488281 188.296875 137.050781 188.222656 136.539062 C 187.417969 137.707031 187.128906 139.53125 185.738281 140.550781 C 183.476562 142.230469 180.628906 142.375 177.925781 142.886719 C 181.066406 140.113281 184.351562 137.269531 184.9375 132.382812 C 185.738281 125.890625 183.402344 118.523438 178.65625 116.847656 C 177.121094 116.261719 174.785156 116.117188 172.738281 116.261719 C 170.988281 116.410156 168.796875 117.648438 167.40625 116.261719 C 167.40625 116.117188 167.40625 116.042969 167.40625 115.972656 C 168.867188 116.261719 170.621094 114.804688 171.9375 114.585938 C 172.8125 114.4375 173.761719 114.4375 174.710938 114.4375 C 175.003906 114.511719 175.296875 114.585938 175.515625 114.585938 C 176.171875 114.65625 176.828125 114.65625 177.414062 114.65625 C 180.917969 115.167969 184.207031 116.480469 186.324219 118.230469 C 187.859375 119.472656 188.003906 120.929688 189.902344 121.804688 C 191.4375 119.253906 193.554688 115.386719 193.117188 111.960938 C 192.53125 106.851562 186.25 105.175781 182.453125 103.058594 C 198.59375 103.789062 211.738281 107.4375 223.207031 112.835938 C 214.296875 111.886719 203.050781 110.28125 193.773438 112.105469 Z M 193.773438 112.105469 " fill-opacity="1" fill-rule="nonzero"/><path fill="#d08b40" d="M 215.390625 325.390625 C 208.089844 326.847656 198.8125 325.753906 193.335938 323.710938 C 191.800781 323.128906 190.488281 322.324219 189.097656 321.523438 C 190.488281 322.105469 191.949219 322.542969 193.554688 322.761719 C 191.4375 320.792969 188.515625 319.625 186.179688 317.804688 C 202.757812 319.261719 219.847656 318.824219 236.351562 318.167969 C 233.941406 319.261719 230.800781 319.554688 228.390625 320.648438 C 228.609375 320.648438 228.902344 320.722656 229.121094 320.722656 C 228.390625 320.941406 227.734375 321.160156 227.003906 321.378906 C 223.207031 322.910156 219.410156 324.585938 215.390625 325.390625 Z M 215.390625 325.390625 " fill-opacity="1" fill-rule="nonzero"/><path fill="#c7c7c7" d="M 145.9375 54.40625 C 146.519531 63.960938 151.707031 71.546875 156.816406 76.65625 C 158.789062 78.625 160.761719 80.011719 163.097656 81.394531 C 162.585938 83.875 161.929688 86.285156 161.566406 88.835938 C 152.289062 82.050781 144.183594 70.671875 145.9375 54.40625 Z M 145.9375 54.40625 " fill-opacity="1" fill-rule="nonzero"/><path fill="#c7c7c7" d="M 263.300781 80.230469 C 262.9375 80.519531 262.644531 80.886719 262.28125 81.175781 C 262.5 80.8125 262.644531 80.375 262.71875 80.15625 C 262.9375 80.15625 263.082031 80.15625 263.300781 80.15625 C 263.886719 84.242188 263.082031 88.910156 260.746094 91.609375 C 258.847656 90.367188 257.023438 89.199219 255.488281 88.035156 C 259.210938 86.574219 262.0625 84.242188 263.300781 80.230469 Z M 263.300781 80.230469 " fill-opacity="1" fill-rule="nonzero"/><path fill="#c7c7c7" d="M 256.363281 93.941406 C 256.4375 94.015625 256.582031 94.089844 256.65625 94.160156 C 256.65625 94.160156 256.65625 94.160156 256.582031 94.160156 C 256.4375 94.089844 256.363281 94.015625 256.363281 93.941406 Z M 256.363281 93.941406 " fill-opacity="1" fill-rule="nonzero"/><path fill="#c7c7c7" d="M 275.644531 104.082031 C 275.28125 103.644531 274.84375 103.207031 274.476562 102.839844 C 273.746094 102.113281 272.285156 101.382812 272.578125 100.359375 C 277.398438 99.996094 282.144531 98.390625 283.242188 95.035156 C 283.386719 94.890625 283.605469 94.671875 283.753906 94.453125 C 283.972656 99.777344 279.515625 102.113281 275.644531 104.082031 Z M 275.644531 104.082031 " fill-opacity="1" fill-rule="nonzero"/><path fill="#c7c7c7" d="M 89.40625 226.550781 C 86.558594 238.585938 82.175781 251.207031 71.730469 255.582031 C 74.289062 251.863281 76.332031 248.214844 77.792969 243.476562 C 79.253906 238.734375 79.621094 233.410156 80.421875 227.71875 C 81.59375 219.550781 81.738281 210.503906 81.738281 201.75 C 81.738281 198.832031 81.226562 195.84375 82.6875 193.4375 C 91.671875 194.238281 98.753906 191.832031 104.378906 188.695312 C 104.378906 188.914062 104.378906 189.207031 104.160156 189.277344 C 103.429688 194.382812 100.070312 196.71875 97.511719 199.929688 C 95.761719 202.042969 94.300781 204.449219 93.351562 207.296875 C 91.523438 212.910156 90.941406 220.132812 89.40625 226.550781 Z M 89.40625 226.550781 " fill-opacity="1" fill-rule="nonzero"/><path fill="#c7c7c7" d="M 245.410156 327.871094 C 240.222656 331.445312 235.257812 334.359375 228.683594 335.089844 C 234.234375 332.757812 238.25 328.453125 239.710938 322.324219 C 242.339844 319.335938 249.0625 320.503906 251.105469 317 C 253.296875 316.78125 255.5625 316.636719 257.753906 316.34375 C 255.050781 320.941406 250.375 324.367188 245.410156 327.871094 Z M 245.410156 327.871094 " fill-opacity="1" fill-rule="nonzero"/><path fill="#c7c7c7" d="M 169.964844 100.289062 C 170.183594 94.597656 171.863281 88.835938 173.46875 83.949219 C 189.027344 86.136719 206.773438 83.65625 217.65625 78.1875 C 227.660156 80.230469 236.5 83.585938 245.117188 87.816406 C 243.65625 87.230469 242.050781 86.792969 240.441406 86.722656 C 228.101562 86.210938 218.167969 94.527344 222.402344 107.4375 C 222.621094 107.945312 223.132812 108.09375 223.132812 108.75 C 223.132812 108.75 223.132812 108.824219 223.132812 108.824219 C 211.8125 103.863281 199.179688 100.433594 184.71875 99.632812 C 179.167969 99.265625 174.492188 99.703125 169.964844 100.289062 Z M 169.964844 100.289062 " fill-opacity="1" fill-rule="nonzero"/><path fill="#c7c7c7" d="M 239.492188 65.277344 C 222.839844 66.152344 210.207031 74.539062 194.867188 76.4375 C 191.144531 76.875 186.324219 76.875 182.890625 76.4375 C 168.066406 74.464844 157.035156 66.660156 152.289062 54.625 C 150.902344 51.050781 149.296875 45.433594 151.121094 42.296875 C 158.207031 56.15625 171.71875 63.742188 189.683594 65.058594 C 202.757812 66.003906 214.148438 63.234375 222.769531 59.003906 C 229.5625 55.648438 235.839844 50.03125 243.070312 48.570312 C 248.621094 47.40625 253.664062 48.351562 258.628906 49.300781 C 261.769531 49.886719 265.347656 51.050781 267.902344 49.300781 C 267.683594 45.144531 264.324219 43.175781 264.691406 39.089844 C 268.121094 39.308594 271.335938 41.203125 274.402344 42.882812 C 285.359375 48.789062 296.316406 57.179688 296.242188 73.226562 C 296.242188 75.050781 296.316406 78.40625 295.875 80.449219 C 293.757812 90.078125 280.976562 93.652344 268.488281 91.609375 C 266.734375 91.316406 265.054688 90.660156 264.910156 89.347656 C 264.691406 87.816406 266.296875 86.429688 267.027344 84.96875 C 268.488281 81.980469 269.074219 79.0625 267.757812 75.707031 C 263.15625 72.207031 248.84375 73.007812 245.117188 77.238281 C 243.292969 79.355469 244.824219 81.542969 246.796875 83.367188 C 240.222656 79.9375 232.847656 77.3125 225.179688 74.902344 C 232.992188 70.964844 244.167969 68.851562 255.78125 69.796875 C 259.433594 70.089844 262.792969 71.257812 266.222656 71.328125 C 264.835938 70.527344 263.300781 69.726562 261.769531 69.070312 C 261.769531 69.070312 261.84375 69.070312 261.84375 69.070312 C 256.363281 65.421875 248.113281 64.839844 239.492188 65.277344 Z M 239.492188 65.277344 " fill-opacity="1" fill-rule="nonzero"/><path fill="#c7c7c7" d="M 122.855469 226.917969 C 116.0625 234.792969 110.074219 244.132812 104.890625 253.832031 C 103.429688 254.050781 101.75 254.195312 100.070312 254.417969 C 97.441406 254.855469 94.152344 255.292969 94.007812 253.101562 C 94.007812 252.59375 95.03125 251.132812 95.542969 250.039062 C 96.417969 248.289062 97.292969 246.464844 98.023438 244.640625 C 97.878906 245.296875 97.734375 245.953125 97.585938 246.609375 C 102.40625 240.046875 104.890625 231.804688 105.472656 221.152344 C 106.203125 225.96875 104.816406 232.09375 104.085938 236.546875 C 114.019531 230.929688 122.417969 223.851562 131.839844 217.726562 C 131.621094 218.089844 131.328125 218.527344 131.109375 218.894531 C 127.53125 220.570312 125.339844 224.070312 122.855469 226.917969 Z M 122.855469 226.917969 " fill-opacity="1" fill-rule="nonzero"/><path fill="#c7c7c7" d="M 96.492188 233.191406 C 98.023438 231.367188 99.339844 229.324219 100.652344 227.28125 C 100.363281 228.667969 100.144531 230.125 99.921875 231.585938 C 97.003906 238.078125 92.546875 243.328125 87.726562 247.195312 C 90.210938 243.546875 92.035156 239.316406 94.59375 235.230469 C 95.46875 233.847656 96.273438 232.167969 97.074219 230.5625 C 96.78125 231.4375 96.5625 232.3125 96.273438 233.191406 C 96.34375 233.410156 96.492188 233.261719 96.492188 233.191406 Z M 96.492188 233.191406 " fill-opacity="1" fill-rule="nonzero"/><path fill="#c7c7c7" d="M 176.828125 317.21875 C 178.875 317.4375 180.628906 318.023438 182.308594 318.679688 C 180.480469 318.167969 178.582031 317.804688 176.828125 317.21875 Z M 176.828125 317.21875 " fill-opacity="1" fill-rule="nonzero"/><path fill="#c7c7c7" d="M 288.5 122.390625 C 285.578125 124.285156 282.21875 126.984375 278.203125 127.789062 C 279.664062 123.703125 281.195312 119.765625 282.4375 115.535156 C 287.039062 117.066406 294.125 117.285156 296.753906 113.78125 C 295.949219 118.085938 291.859375 120.273438 288.5 122.390625 Z M 288.5 122.390625 " fill-opacity="1" fill-rule="nonzero"/><path fill="#d08b40" d="M 156.085938 184.609375 C 159.667969 191.757812 163.609375 198.6875 169.597656 203.503906 C 169.308594 203.355469 169.015625 203.136719 168.648438 203.0625 C 170.476562 207.804688 176.902344 212.621094 183.839844 213.277344 C 191.363281 214.003906 198.230469 211.671875 201.296875 206.417969 C 200.347656 206.636719 199.398438 206.929688 198.449219 207.148438 C 204.507812 204.597656 210.207031 201.605469 214.222656 197.300781 C 215.101562 196.355469 215.609375 194.820312 216.488281 195.039062 C 215.757812 207.222656 208.964844 213.203125 199.980469 217.070312 C 194.578125 217.945312 188.660156 218.457031 183.039062 217.652344 C 177.046875 216.777344 171.132812 214.078125 166.3125 211.378906 C 166.3125 211.378906 166.3125 211.378906 166.238281 211.378906 C 165.582031 210.722656 164.996094 209.992188 164.414062 209.335938 C 159.519531 203.355469 154.1875 194.96875 156.085938 184.609375 Z M 156.085938 184.609375 " fill-opacity="1" fill-rule="nonzero"/><path fill="#f8b76e" d="M 147.761719 136.394531 C 150.683594 132.894531 154.117188 129.539062 156.453125 125.671875 C 156.527344 125.527344 156.671875 125.378906 156.746094 125.234375 C 156.746094 125.234375 156.746094 125.160156 156.746094 125.160156 C 157.109375 124.578125 157.402344 123.996094 157.695312 123.339844 C 160.03125 118.011719 161.417969 112.46875 163.171875 105.6875 C 163.535156 105.539062 163.902344 105.394531 164.265625 105.25 C 164.046875 106.5625 163.464844 108.167969 163.171875 109.480469 C 162.078125 114.21875 161.417969 117.722656 160.542969 122.023438 C 160.105469 124.140625 159.957031 126.546875 159.226562 128.296875 C 158.789062 129.320312 157.476562 130.488281 156.597656 131.507812 C 150.246094 139.09375 144.695312 147.554688 142.574219 159.007812 C 140.675781 168.925781 141.480469 178.921875 143.671875 188.257812 C 140.824219 183.078125 138.632812 177.316406 137.683594 171.117188 C 134.835938 154.777344 140.605469 145.003906 147.761719 136.394531 Z M 147.761719 136.394531 " fill-opacity="1" fill-rule="nonzero"/><path fill="#f8b76e" d="M 173.761719 147.992188 C 176.390625 144.054688 183.109375 144.929688 186.398438 141.9375 C 186.46875 141.9375 186.46875 141.9375 186.542969 141.867188 C 185.667969 147.699219 176.316406 148.578125 175.367188 154.410156 C 175.003906 156.527344 175.734375 158.714844 176.539062 160.683594 C 172.667969 157.695312 170.988281 152.296875 173.761719 147.992188 Z M 173.761719 147.992188 " fill-opacity="1" fill-rule="nonzero"/><path fill="#e6e6e5" d="M 256.21875 81.761719 C 259.433594 80.519531 261.695312 79.136719 263.59375 78.1875 C 263.59375 78.039062 263.59375 77.96875 263.8125 77.96875 C 264.03125 77.96875 264.03125 78.113281 264.179688 78.1875 C 264.03125 79.0625 263.667969 79.792969 263.15625 80.449219 C 263.15625 80.375 263.230469 80.300781 263.230469 80.300781 C 261.914062 81.46875 260.601562 82.5625 259.066406 83.4375 C 258.628906 83.65625 258.191406 83.875 257.753906 84.09375 C 257.53125 84.167969 257.3125 84.3125 257.023438 84.386719 C 255.121094 85.117188 252.785156 85.40625 249.71875 85.042969 C 249.425781 84.898438 249.132812 84.679688 248.839844 84.53125 C 249.9375 82.710938 254.390625 82.488281 256.21875 81.761719 Z M 256.21875 81.761719 " fill-opacity="1" fill-rule="nonzero"/><path fill="#e6e6e5" d="M 295.585938 126.183594 C 291.785156 131.214844 285.796875 133.988281 276.375 133.402344 C 276.523438 132.820312 276.742188 132.308594 276.886719 131.726562 C 285.066406 131.433594 290.617188 127.421875 294.195312 122.171875 C 299.164062 121.148438 302.667969 118.304688 304.273438 114.21875 C 305.808594 110.28125 305.882812 103.863281 305.003906 99.414062 C 304.203125 95.546875 301.792969 92.265625 302.15625 88.761719 C 302.449219 88.691406 302.667969 88.691406 302.886719 88.761719 C 308.144531 94.234375 315.011719 101.820312 311.796875 112.324219 C 311.433594 113.492188 310.996094 114.65625 310.410156 115.679688 C 309.898438 116.554688 309.316406 117.429688 308.730469 118.304688 C 305.734375 122.171875 301.0625 124.796875 295.585938 126.183594 Z M 295.585938 126.183594 " fill-opacity="1" fill-rule="nonzero"/><path fill="#e6e6e5" d="M 248.257812 119.179688 C 256.070312 116.992188 257.386719 106.488281 256.800781 97.152344 C 262.574219 101.019531 268.34375 104.882812 272.578125 110.207031 C 267.832031 116.117188 265.710938 124.722656 264.761719 134.5 C 261.621094 132.382812 258.773438 129.828125 256 127.277344 C 253.296875 124.796875 250.300781 122.316406 248.257812 119.179688 Z M 248.257812 119.179688 " fill-opacity="1" fill-rule="nonzero"/><path fill="#e6e6e5" d="M 214.953125 232.386719 C 216.121094 236.109375 208.746094 238.296875 206.335938 236.109375 C 206.335938 235.816406 206.410156 235.523438 206.480469 235.230469 C 207.359375 232.605469 211.667969 231.65625 214.953125 232.386719 Z M 214.953125 232.386719 " fill-opacity="1" fill-rule="nonzero"/><path fill="#e6e6e5" d="M 162.367188 270.390625 C 168.136719 259.15625 177.996094 251.0625 189.902344 246.683594 C 191.144531 246.246094 192.386719 245.882812 193.628906 245.515625 C 192.386719 246.171875 191.070312 246.683594 189.902344 247.414062 C 187.859375 248.652344 185.738281 249.964844 183.839844 251.425781 C 176.246094 256.894531 168.796875 263.535156 164.488281 272.285156 C 162.296875 276.808594 160.03125 282.207031 159.519531 287.679688 C 159.300781 289.867188 159.375 292.566406 159.300781 295.046875 C 159.226562 296.429688 159.445312 298.109375 159.15625 299.421875 C 158.351562 299.203125 157.621094 299.058594 156.890625 298.839844 C 155.136719 287.386719 158.351562 278.269531 162.367188 270.390625 Z M 162.367188 270.390625 " fill-opacity="1" fill-rule="nonzero"/><path fill="#e6e6e5" d="M 202.097656 246.828125 C 193.847656 251.207031 188.589844 258.648438 187.273438 269.953125 C 190.925781 264.117188 193.042969 258.210938 198.300781 254.195312 C 203.414062 250.332031 209.476562 247.632812 217.289062 246.246094 C 223.425781 255.511719 226.054688 269.222656 225.46875 284.542969 C 215.902344 287.96875 200.859375 289.28125 188.589844 287.386719 C 183.039062 286.511719 177.632812 285.34375 174.566406 282.28125 C 174.566406 276.808594 174.566406 271.921875 175.296875 267.691406 C 177.707031 253.90625 188.441406 249.382812 202.097656 246.828125 Z M 202.097656 246.828125 " fill-opacity="1" fill-rule="nonzero"/><path fill="#e6e6e5" d="M 262.71875 295.410156 C 262.644531 294.167969 262.574219 292.785156 262.5 291.398438 C 261.476562 271.121094 252.203125 257.042969 239.492188 248.507812 C 239.273438 248.363281 238.980469 248.214844 238.761719 247.996094 C 244.242188 250.402344 249.132812 253.613281 253.222656 257.625 C 262.9375 267.109375 270.167969 280.96875 268.414062 298.765625 C 266.589844 299.277344 264.691406 299.714844 262.792969 300.078125 C 262.5 298.546875 262.71875 296.359375 262.71875 295.410156 Z M 262.71875 295.410156 " fill-opacity="1" fill-rule="nonzero"/><path fill="#e6e6e5" d="M 182.527344 141.9375 C 182.746094 141.9375 182.964844 141.9375 183.183594 141.9375 C 182.234375 142.230469 181.210938 142.449219 180.1875 142.59375 C 180.917969 142.230469 181.722656 142.011719 182.527344 141.9375 Z M 182.527344 141.9375 " fill-opacity="1" fill-rule="nonzero"/><path fill="#e6e6e5" d="M 235.332031 32.015625 C 232.773438 31.136719 230 30.554688 227.589844 29.535156 C 228.027344 29.386719 228.390625 29.167969 228.832031 29.023438 C 249.207031 23.550781 268.851562 29.316406 282.21875 39.089844 C 282.074219 39.015625 281.855469 38.945312 281.707031 38.945312 C 282.511719 39.453125 283.3125 40.039062 284.117188 40.546875 C 284.847656 41.132812 285.578125 41.714844 286.234375 42.296875 C 288.132812 43.976562 289.960938 45.800781 291.566406 47.769531 C 281.125 39.234375 268.5625 32.742188 250.742188 31.285156 C 245.042969 30.847656 240.078125 31.429688 235.332031 32.015625 Z M 235.332031 32.015625 " fill-opacity="1" fill-rule="nonzero"/><path fill="#e6e6e5" d="M 145.132812 74.757812 C 141.042969 67.976562 138.195312 58.929688 138.851562 49.519531 C 139.875 34.929688 148.785156 27.199219 161.855469 24.28125 C 168.210938 22.894531 176.683594 21.875 184.058594 22.75 C 199.398438 24.574219 211.519531 27.273438 223.9375 30.917969 C 225.761719 31.429688 227.660156 32.085938 229.632812 32.523438 C 228.832031 32.523438 228.101562 32.523438 227.371094 32.453125 C 210.9375 31.285156 194.796875 27.125 177.195312 27.125 C 172.226562 27.125 167.335938 27.492188 164.121094 29.605469 C 161.273438 31.429688 160.398438 35.078125 162.441406 37.921875 C 166.898438 44.121094 177.851562 47.332031 187.347656 48.351562 C 196.546875 49.375 206.773438 48.351562 216.050781 48.351562 C 220.941406 48.351562 228.539062 49.300781 224.011719 53.679688 C 221.601562 56.011719 217 57.472656 213.199219 58.417969 C 208.890625 59.441406 204.21875 60.535156 199.910156 60.679688 C 175.296875 61.773438 156.015625 53.460938 149.585938 36.609375 C 149.003906 38.359375 148.855469 40.328125 149.003906 42.519531 C 149.878906 56.304688 156.378906 64.910156 164.195312 71.183594 C 166.53125 73.082031 169.085938 74.976562 171.570312 75.925781 C 177.851562 78.332031 185.007812 78.625 191.507812 78.40625 C 199.910156 78.113281 206.042969 74.757812 213.785156 74.175781 C 206.117188 76.875 198.449219 79.644531 189.390625 80.375 C 179.238281 81.175781 170.839844 79.792969 164.121094 76.507812 C 162.953125 75.78125 161.785156 75.050781 160.6875 74.539062 C 152.800781 69.359375 147.90625 61.046875 146.082031 49.8125 C 146.082031 50.03125 146.082031 50.25 146.007812 50.46875 C 145.644531 48.9375 145.351562 47.332031 144.914062 45.652344 C 140.019531 61.628906 145.789062 75.414062 153.605469 85.1875 C 150.246094 82.199219 147.46875 78.769531 145.132812 74.757812 Z M 145.132812 74.757812 " fill-opacity="1" fill-rule="nonzero"/><path fill="#000000" d="M 215.390625 145.003906 C 214.589844 148.867188 216.414062 152.441406 219.480469 153.097656 C 222.476562 153.683594 225.617188 151.054688 226.347656 147.261719 C 227.152344 143.398438 225.324219 139.824219 222.257812 139.167969 C 219.261719 138.511719 216.121094 141.136719 215.390625 145.003906 Z M 215.390625 145.003906 " fill-opacity="1" fill-rule="nonzero"/><path fill="#000000" d="M 173.617188 128.078125 C 172.226562 131.726562 173.46875 135.59375 176.316406 136.6875 C 179.238281 137.78125 182.671875 135.664062 184.058594 132.019531 C 185.449219 128.371094 184.207031 124.503906 181.359375 123.410156 C 178.507812 122.316406 175.003906 124.433594 173.617188 128.078125 Z M 173.617188 128.078125 " fill-opacity="1" fill-rule="nonzero"/><path fill="#ffffff" d="M 223.28125 143.03125 C 223.28125 143.6875 223.789062 144.199219 224.449219 144.199219 C 225.105469 144.199219 225.617188 143.6875 225.617188 143.03125 C 225.617188 142.375 225.105469 141.867188 224.449219 141.867188 C 223.789062 141.867188 223.28125 142.375 223.28125 143.03125 Z M 223.28125 143.03125 " fill-opacity="1" fill-rule="nonzero"/><path fill="#ffffff" d="M 182.089844 128.808594 C 182.089844 129.464844 182.597656 129.976562 183.257812 129.976562 C 183.914062 129.976562 184.425781 129.464844 184.425781 128.808594 C 184.425781 128.152344 183.914062 127.640625 183.257812 127.640625 C 182.597656 127.640625 182.089844 128.152344 182.089844 128.808594 Z M 182.089844 128.808594 " fill-opacity="1" fill-rule="nonzero"/><path fill="#000000" d="M 224.300781 135.664062 C 218.96875 133.476562 213.640625 132.894531 206.992188 132.820312 C 207.359375 130.777344 209.257812 129.027344 211.007812 127.714844 C 214.441406 125.015625 219.410156 123.265625 225.617188 123.703125 C 229.121094 123.996094 235.988281 125.234375 236.792969 128.226562 C 237.375 130.414062 236.351562 132.964844 235.621094 135.082031 C 235.109375 136.613281 234.382812 140.042969 232.554688 140.1875 C 231.824219 140.261719 229.5625 138.582031 228.390625 137.925781 C 227.003906 137.050781 225.398438 136.101562 224.300781 135.664062 Z M 235.332031 128.078125 C 228.246094 124.066406 214.296875 124.652344 210.425781 131.144531 C 220.210938 130.558594 226.640625 134.425781 232.261719 137.417969 C 233.871094 134.789062 234.890625 131.726562 235.332031 128.078125 Z M 235.332031 128.078125 " fill-opacity="1" fill-rule="nonzero"/><path fill="#000000" d="M 158.425781 136.101562 C 158.570312 136.101562 158.644531 136.101562 158.789062 136.101562 C 158.207031 137.488281 157.328125 138.582031 157.109375 139.75 C 154.699219 150.109375 162.585938 157.914062 171.132812 158.789062 C 168.578125 154.191406 169.671875 148.066406 172.8125 145.148438 C 176.464844 141.792969 181.941406 143.46875 185.738281 140.625 C 187.128906 139.605469 187.417969 137.78125 188.222656 136.613281 C 188.660156 146.242188 177.339844 142.667969 173.761719 147.992188 C 169.816406 153.972656 174.710938 162.144531 181.722656 163.019531 C 183.914062 163.238281 186.542969 162.800781 188.953125 163.019531 C 190.269531 163.164062 191.289062 163.75 192.386719 163.96875 C 198.8125 165.132812 201.148438 160.320312 197.863281 156.164062 C 202.320312 156.890625 202.390625 164.84375 198.59375 166.375 C 204.800781 174.035156 227.589844 176.292969 230.875 164.476562 C 233.652344 177.609375 223.5 183.878906 213.417969 186.140625 C 210.207031 196.863281 201.441406 205.253906 186.835938 204.011719 C 171.570312 202.699219 160.398438 188.839844 161.785156 172.28125 C 149.441406 168.707031 147.03125 142.375 158.425781 136.101562 Z M 198.667969 198.6875 C 204.730469 196.71875 208.527344 192.195312 210.644531 186.359375 C 204.4375 186.578125 198.59375 185.484375 194.136719 183.734375 C 193.699219 183.589844 193.117188 183.589844 192.457031 183.734375 C 185.59375 185.339844 180.40625 190.589844 178.21875 197.375 C 182.964844 200.585938 192.898438 200.585938 198.667969 198.6875 Z M 160.6875 169.074219 C 164.707031 171.699219 171.425781 173.085938 177.996094 172.136719 C 178.949219 171.992188 180.261719 171.335938 181.210938 171.554688 C 182.015625 171.699219 183.257812 173.523438 184.058594 174.398438 C 189.539062 180.671875 201.734375 185.777344 214.078125 183.515625 C 221.890625 182.058594 227.878906 177.316406 230 170.019531 C 225.691406 173.230469 220.796875 176.730469 212.324219 175.929688 C 206.628906 175.417969 201.953125 173.15625 198.300781 170.460938 C 197.207031 169.65625 196.109375 167.90625 194.867188 167.394531 C 194.066406 167.105469 192.75 167.25 191.65625 167.03125 C 190.707031 166.8125 189.757812 166.375 189.027344 166.300781 C 185.449219 165.863281 182.234375 166.15625 179.3125 165.351562 C 176.683594 164.625 174.785156 163.238281 172.667969 161.558594 C 161.855469 160.246094 154.1875 154.847656 154.773438 142.742188 C 151.046875 152.296875 154.117188 164.769531 160.6875 169.074219 Z M 160.6875 169.074219 " fill-opacity="1" fill-rule="nonzero"/><path fill="#000000" d="M 92.109375 164.476562 C 90.355469 156.964844 86.121094 150.835938 81.882812 146.460938 C 88.675781 148.796875 93.789062 154.847656 92.109375 164.476562 Z M 92.109375 164.476562 " fill-opacity="1" fill-rule="nonzero"/><path fill="#000000" d="M 251.835938 173.59375 C 251.835938 172.5 253.078125 170.96875 253.953125 169.800781 C 255.269531 167.90625 256.875 165.644531 259.066406 165.425781 C 262.9375 164.988281 265.785156 170.460938 263.230469 173.960938 C 263.523438 170.386719 262.425781 167.394531 260.015625 167.324219 C 257.242188 167.25 255.925781 171.261719 254.683594 173.375 C 257.753906 176.441406 256.511719 183.296875 252.203125 183.441406 C 253.882812 181.984375 254.390625 180.378906 254.101562 178.117188 C 253.882812 176.367188 251.910156 175.054688 251.835938 173.59375 Z M 251.835938 173.59375 " fill-opacity="1" fill-rule="nonzero"/><path fill="#000000" d="M 185.007812 209.265625 C 191.875 209.773438 195.964844 207.660156 201.367188 206.417969 C 198.230469 211.671875 191.4375 214.003906 183.914062 213.277344 C 176.976562 212.621094 170.546875 207.734375 168.722656 203.0625 C 170.183594 203.648438 171.207031 204.667969 172.519531 205.324219 C 176.027344 207.148438 180.117188 208.898438 185.007812 209.265625 Z M 185.007812 209.265625 " fill-opacity="1" fill-rule="nonzero"/><g clip-path="url(#c07c13952f)"><path fill="#000000" d="M 92.472656 281.769531 C 94.371094 276.078125 97.003906 271.191406 98.753906 266.234375 C 80.933594 272.285156 58.804688 264.992188 51.429688 254.269531 C 43.613281 242.964844 45.804688 220.714844 49.164062 205.910156 C 51.867188 193.945312 55.589844 183.953125 58.660156 172.71875 C 59.753906 168.855469 60.484375 164.1875 62.089844 161.925781 C 63.40625 160.027344 65.742188 158.789062 67.203125 157.402344 C 64.5 147.773438 66.765625 136.6875 70.050781 127.058594 C 71.292969 123.339844 72.679688 119.910156 73.851562 116.410156 C 75.09375 112.835938 76.332031 108.824219 78.011719 106.195312 C 79.839844 103.351562 83.5625 100.433594 87.871094 102.402344 C 90.0625 98.320312 93.789062 89.566406 101.164062 91.972656 C 102.554688 92.410156 103.355469 93.796875 104.597656 94.816406 C 108.175781 88.910156 116.210938 89.273438 119.570312 94.089844 C 123.660156 99.921875 120.445312 108.238281 117.890625 113.273438 C 122.929688 114.511719 126.582031 117.574219 127.96875 122.171875 C 129.574219 127.496094 127.75 134.132812 126.800781 140.042969 C 129.355469 143.46875 130.523438 152.878906 129.648438 158.640625 C 129.066406 162.214844 126.289062 164.769531 123.953125 166.226562 C 122.636719 167.03125 121.25 167.25 119.933594 167.90625 C 117.890625 169 116.355469 171.042969 114.019531 171.917969 C 115.480469 173.59375 115.992188 175.785156 115.699219 178.773438 C 115.042969 186.871094 111.972656 195.332031 110.367188 202.117188 C 118.183594 196.863281 126.582031 192.269531 137.171875 189.789062 C 132.277344 180.523438 128.917969 167.25 131.109375 154.484375 C 132.933594 144.054688 139.945312 136.320312 145.570312 129.609375 C 147.617188 127.203125 150.027344 124.871094 151.488281 122.242188 C 155.578125 114.804688 156.964844 104.882812 159.667969 96.421875 C 152.289062 92.628906 146.007812 87.816406 141.40625 81.03125 C 136.878906 74.394531 133.300781 65.859375 132.644531 56.011719 C 131.109375 31.648438 145.570312 19.976562 166.457031 17.71875 C 171.132812 17.207031 176.464844 16.988281 181.867188 16.988281 C 187.054688 16.988281 192.09375 17.863281 196.695312 18.519531 C 203.488281 19.539062 210.5 21 216.851562 22.675781 C 218.96875 23.261719 221.453125 24.574219 223.132812 24.574219 C 224.15625 24.574219 225.761719 23.917969 226.929688 23.625 C 230.582031 22.605469 234.964844 21.582031 239.273438 21.363281 C 259.140625 20.34375 273.308594 25.523438 284.703125 33.691406 C 298.726562 43.832031 309.242188 58.128906 309.023438 82.050781 C 309.023438 83.511719 308.511719 85.480469 308.804688 86.792969 C 309.023438 87.597656 310.191406 88.472656 310.921875 89.273438 C 315.816406 94.816406 320.707031 103.425781 317.933594 113.78125 C 315.667969 122.171875 309.316406 127.496094 302.375 130.707031 C 301.355469 131.144531 300.039062 131.433594 298.945312 132.019531 C 297.703125 132.675781 296.898438 134.0625 295.875 134.863281 C 291.203125 138.511719 285.214844 140.261719 276.304688 139.824219 C 275.644531 145.878906 276.082031 151.128906 273.089844 154.777344 C 271.628906 156.601562 269.511719 157.695312 269.292969 160.246094 C 277.910156 172.429688 270.605469 193.875 257.53125 196.644531 C 253.734375 197.449219 249.9375 196.425781 247.671875 195.113281 C 247.015625 197.15625 244.3125 198.394531 243.875 200.804688 C 243.4375 203.429688 244.824219 206.492188 244.242188 210.066406 C 262.9375 222.757812 277.984375 244.933594 279.734375 274.402344 C 280.246094 282.351562 279.222656 288.625 277.835938 294.679688 C 282.875 295.628906 289.816406 297.523438 292.296875 301.316406 C 296.386719 307.519531 287.84375 311.820312 283.753906 313.0625 C 279.222656 314.449219 274.988281 315.25 270.242188 315.90625 C 265.203125 324.515625 260.089844 330.277344 252.203125 335.457031 C 244.605469 340.414062 235.988281 345.15625 224.082031 345.15625 C 208.671875 345.15625 200.710938 338.59375 192.53125 331.882812 C 190.632812 330.277344 188.734375 328.378906 186.617188 327.140625 C 183.039062 325.097656 178.144531 323.710938 173.90625 321.816406 C 171.863281 320.941406 169.671875 319.917969 167.628906 318.96875 C 165.582031 317.949219 163.683594 316.488281 161.710938 315.761719 C 159.375 314.886719 156.234375 314.519531 153.386719 314.082031 C 150.464844 313.574219 147.617188 312.84375 145.207031 312.1875 C 140.894531 311.09375 132.644531 308.902344 132.863281 304.234375 C 133.007812 301.027344 138.414062 299.421875 141.1875 298.328125 C 145.058594 296.867188 149.148438 296.140625 152.214844 295.117188 C 151.851562 280.75 156.308594 270.316406 162.078125 261.929688 C 167.261719 254.417969 173.980469 248.582031 182.234375 244.859375 C 173.835938 237.640625 167.1875 228.667969 162.078125 218.089844 C 154.042969 211.378906 147.324219 203.429688 140.605469 195.476562 C 127.53125 198.175781 117.378906 203.722656 108.6875 211.234375 C 107.59375 212.183594 105.472656 213.714844 105.253906 214.664062 C 104.964844 215.828125 105.472656 217.871094 105.472656 219.402344 C 105.035156 231.074219 102.625 239.902344 97.511719 246.902344 C 98.902344 240.847656 99.339844 233.847656 100.582031 227.574219 C 99.265625 229.617188 97.878906 231.585938 96.417969 233.480469 C 96.417969 233.554688 96.273438 233.699219 96.199219 233.480469 C 99.195312 224.144531 100.945312 213.566406 103.792969 203.503906 C 105.765625 196.574219 108.175781 189.132812 109.492188 181.109375 C 109.855469 178.847656 110.804688 174.910156 107.8125 174.472656 C 109.636719 179.578125 106.714844 184.027344 103.648438 186.070312 C 92.839844 193.21875 70.273438 187.453125 67.351562 175.855469 C 66.472656 172.210938 67.789062 167.761719 69.03125 165.644531 C 69.542969 164.84375 70.929688 164.113281 70.199219 162.800781 C 66.472656 164.476562 66.402344 168.050781 65.085938 172.648438 C 60.265625 189.351562 53.765625 207.078125 52.378906 225.75 C 51.941406 231.65625 52.160156 237.273438 52.960938 241.871094 C 55.371094 255.582031 68.082031 261.5625 82.761719 262.585938 C 91.234375 263.167969 96.636719 260.761719 102.699219 258.429688 C 108.324219 247.269531 115.042969 236.328125 122.855469 227.28125 C 125.484375 224.289062 127.675781 220.570312 131.621094 219.113281 C 120.007812 234.648438 112.414062 251.863281 104.234375 269.953125 C 100.507812 278.269531 97.222656 286.4375 95.46875 296.140625 C 93.714844 294.316406 91.960938 292.417969 90.355469 290.523438 C 90.941406 287.238281 91.597656 284.46875 92.472656 281.769531 Z M 295.585938 126.183594 C 303.546875 124.140625 309.679688 119.765625 311.945312 112.324219 C 315.15625 101.820312 308.292969 94.234375 303.035156 88.761719 C 305.078125 67.976562 297.921875 52.511719 286.308594 42.296875 C 272.796875 30.335938 250.523438 22.53125 227.441406 29.386719 C 230.21875 30.628906 233.722656 31.210938 236.570312 32.453125 C 232.117188 33.765625 227.953125 32.085938 224.011719 30.917969 C 211.519531 27.34375 199.46875 24.574219 184.132812 22.75 C 176.683594 21.875 168.285156 22.894531 161.929688 24.28125 C 148.855469 27.199219 139.945312 34.929688 138.925781 49.519531 C 138.265625 58.929688 141.117188 67.976562 145.207031 74.757812 C 149.222656 81.46875 154.335938 86.792969 161.566406 89.929688 C 161.929688 86.867188 162.734375 84.242188 163.246094 81.394531 C 160.90625 80.011719 158.9375 78.625 156.964844 76.65625 C 151.046875 70.746094 144.984375 61.554688 146.15625 49.738281 C 149.660156 71.257812 164.488281 82.199219 189.464844 80.300781 C 199.6875 79.5 208.160156 76.070312 216.851562 73.082031 C 225.46875 70.089844 234.308594 66.589844 244.386719 66.078125 C 253.589844 65.566406 260.601562 67.976562 266.296875 71.328125 C 262.863281 71.257812 259.503906 70.089844 255.851562 69.796875 C 244.242188 68.851562 233.066406 70.964844 225.25 74.902344 C 234.089844 77.601562 242.5625 80.667969 249.792969 84.96875 C 256.730469 85.84375 260.015625 83.074219 263.300781 80.230469 C 262.132812 84.242188 259.285156 86.574219 255.488281 88.035156 C 258.117188 90.003906 261.914062 92.191406 264.984375 94.453125 C 266.078125 95.253906 266.882812 96.347656 267.832031 96.714844 C 273.164062 98.757812 279.371094 96.347656 283.386719 94.453125 C 282.65625 98.171875 277.691406 99.921875 272.578125 100.359375 C 272.285156 101.382812 273.746094 102.113281 274.476562 102.839844 C 276.8125 105.175781 279.152344 108.3125 280.902344 111.15625 C 284.921875 113.855469 292.371094 114.804688 297.410156 112.46875 C 295.65625 117.285156 287.476562 117.136719 282.4375 115.535156 C 280.613281 121.660156 278.203125 127.203125 276.375 133.402344 C 285.722656 133.914062 291.785156 131.214844 295.585938 126.183594 Z M 269.511719 142.886719 C 269.804688 138.074219 271.992188 132.527344 273.527344 127.933594 C 274.550781 124.941406 275.9375 120.929688 277.324219 117.503906 C 277.835938 116.191406 278.714844 114.730469 278.640625 114.074219 C 278.492188 112.46875 274.695312 109.113281 273.164062 107.4375 C 267.320312 101.238281 260.382812 96.128906 252.859375 91.898438 C 241.832031 85.699219 230.730469 80.886719 217.730469 78.257812 C 205.679688 84.3125 185.300781 86.722656 168.722656 83.21875 C 167.40625 89.273438 165.945312 95.183594 164.558594 101.238281 C 170.988281 100.214844 176.976562 99.265625 184.863281 99.703125 C 205.019531 100.796875 221.820312 107.144531 236.132812 115.460938 C 250.375 123.777344 261.550781 136.03125 268.632812 149.960938 C 270.460938 147.917969 269.363281 145.148438 269.511719 142.886719 Z M 175.515625 104.152344 C 171.9375 104.519531 169.085938 106.269531 167.335938 108.53125 C 167.554688 110.425781 167.992188 112.03125 168.285156 113.855469 C 176.390625 110.792969 185.738281 114.585938 189.976562 118.960938 C 190.414062 116.335938 191.949219 114.292969 191.289062 111.59375 C 190.414062 108.09375 181.867188 103.570312 175.515625 104.152344 Z M 241.976562 177.242188 C 244.167969 176.222656 245.261719 174.105469 246.503906 172.136719 C 247.527344 164.84375 248.988281 156.601562 255.78125 154.847656 C 258.773438 154.121094 262.28125 155.066406 264.324219 156.746094 C 264.542969 155.214844 266.441406 153.753906 266.441406 152.003906 C 266.441406 150.398438 263.59375 147.335938 262.425781 145.585938 C 259.652344 141.429688 256.511719 137.269531 253.296875 133.84375 C 251.398438 131.800781 249.425781 130.121094 247.601562 128.371094 C 247.453125 128.371094 247.453125 128.445312 247.382812 128.589844 C 244.75 136.6875 243.511719 147.117188 243.949219 157.839844 C 244.386719 164.625 244.09375 171.773438 241.976562 177.242188 Z M 211.375 337.132812 C 235.476562 343.625 254.757812 329.253906 263.8125 315.542969 C 259.796875 316.269531 255.414062 316.636719 251.105469 317.074219 C 249.0625 320.574219 242.339844 319.40625 239.710938 322.398438 C 237.011719 333.703125 225.46875 339.03125 211.230469 336.839844 C 211.082031 336.839844 211.007812 336.839844 210.863281 336.839844 C 209.695312 337.058594 211.449219 336.839844 211.375 337.132812 Z M 190.339844 325.023438 C 195.746094 327.578125 201.589844 331.003906 207.285156 332.027344 C 216.121094 333.632812 224.8125 330.640625 229.925781 327.066406 C 227.808594 326.554688 225.46875 327.429688 223.058594 327.285156 C 226.929688 325.097656 231.679688 323.710938 235.039062 321.011719 C 232.699219 321.011719 230.511719 320.867188 228.390625 320.648438 C 230.800781 319.554688 233.941406 319.261719 236.351562 318.167969 C 219.847656 318.824219 202.757812 319.261719 186.179688 317.804688 C 188.515625 319.554688 191.4375 320.792969 193.554688 322.761719 C 186.90625 321.886719 182.597656 317 174.347656 317.074219 C 179.019531 319.40625 184.496094 322.253906 190.339844 325.023438 Z M 152.726562 299.203125 C 147.324219 300.371094 141.40625 301.027344 137.902344 304.164062 C 140.019531 307.082031 144.253906 307.882812 147.980469 308.683594 C 159.59375 311.3125 173.617188 312.113281 187.128906 313.0625 C 204.4375 314.230469 223.5 313.644531 241.101562 312.695312 C 254.101562 311.96875 266.664062 311.164062 278.128906 308.539062 C 281.488281 307.738281 285.359375 306.863281 287.402344 304.164062 C 283.898438 301.171875 278.054688 300.441406 272.796875 299.203125 C 271.773438 299.277344 273.089844 300.515625 272.433594 300.878906 C 264.910156 304.964844 254.832031 305.402344 244.679688 306.570312 C 234.382812 307.738281 223.570312 307.738281 212.761719 307.738281 C 201.953125 307.738281 191.070312 307.808594 180.847656 306.570312 C 170.621094 305.402344 160.617188 304.964844 152.945312 301.097656 C 151.925781 300.660156 153.238281 299.785156 152.726562 299.203125 Z M 162.367188 270.390625 C 158.277344 278.269531 155.136719 287.386719 156.890625 298.839844 C 172.667969 303.070312 192.75 304.746094 212.761719 304.746094 C 232.628906 304.746094 252.710938 303.070312 268.414062 298.839844 C 270.167969 281.039062 262.9375 267.179688 253.222656 257.699219 C 245.117188 249.820312 233.796875 244.714844 220.722656 243.839844 C 218.019531 243.695312 215.320312 243.984375 212.761719 244.058594 C 204.070312 244.058594 196.695312 244.277344 189.976562 246.683594 C 177.996094 251.0625 168.136719 259.15625 162.367188 270.390625 Z M 218.460938 234.503906 C 216.558594 231.148438 207.722656 231.367188 206.480469 235.230469 C 206.042969 236.546875 206.480469 237.785156 207.429688 239.609375 C 209.769531 241.140625 215.976562 241.359375 217.875 239.390625 C 218.96875 238.296875 219.191406 235.816406 218.460938 234.503906 Z M 172.082031 228.230469 C 176.027344 233.628906 181.066406 238.804688 186.324219 243.035156 C 191.582031 241.359375 197.207031 240.121094 203.632812 239.609375 C 202.171875 234.941406 203.414062 230.5625 207.066406 229.179688 C 214.371094 226.40625 225.980469 230.417969 221.527344 239.609375 C 251.910156 242.378906 268.269531 259.011719 272.652344 287.824219 C 273.527344 286.074219 273.671875 283.8125 273.820312 282.132812 C 274.039062 279.800781 273.964844 277.394531 273.820312 274.765625 C 273.015625 262.074219 269.4375 250.257812 263.960938 240.265625 C 258.410156 230.125 251.179688 221.59375 243.070312 215.976562 C 242.925781 215.976562 242.925781 216.046875 242.851562 216.195312 C 237.519531 223.050781 225.691406 225.824219 213.785156 227.574219 C 203.050781 229.179688 189.828125 230.492188 179.96875 228.300781 C 175.808594 227.425781 172.082031 224.289062 168.796875 222.394531 C 169.378906 224.507812 170.765625 226.40625 172.082031 228.230469 Z M 238.542969 203.210938 C 227.296875 214.226562 211.519531 220.644531 189.757812 221.082031 C 188.589844 222.101562 186.398438 223.050781 186.542969 224.65625 C 202.757812 225.238281 216.707031 223.269531 228.171875 218.964844 C 231.972656 217.507812 235.769531 216.195312 238.617188 213.640625 C 238.691406 209.921875 238.324219 206.492188 238.542969 203.210938 Z M 166.75 215.171875 C 171.351562 218.894531 176.316406 222.25 182.308594 224.4375 C 182.089844 222.757812 181.503906 221.445312 180.992188 220.058594 C 175.878906 218.746094 170.988281 217.140625 166.96875 214.734375 C 166.457031 214.734375 166.75 214.953125 166.75 215.171875 Z M 153.238281 201.53125 C 156.890625 205.398438 161.273438 208.609375 166.3125 211.378906 C 171.132812 214.003906 177.046875 216.777344 183.039062 217.652344 C 190.558594 218.746094 198.519531 217.507812 205.238281 216.121094 C 225.46875 212.109375 238.691406 201.242188 245.921875 184.464844 C 248.039062 186.796875 249.207031 190.082031 252.566406 190.519531 C 264.761719 192.050781 271.703125 170.96875 263.960938 162.652344 C 261.550781 160.101562 254.902344 158.859375 251.980469 162.289062 C 249.71875 168.78125 248.695312 176.074219 243.070312 179.578125 C 242.050781 180.234375 239.929688 181.546875 238.910156 180.523438 C 237.667969 179.285156 240.882812 173.15625 241.171875 170.679688 C 241.976562 162.945312 240.078125 154.265625 240.589844 146.023438 C 241.101562 138.144531 243.65625 131.945312 245.554688 126.476562 C 229.121094 114.21875 210.207031 104.371094 182.671875 103.132812 C 186.398438 105.320312 192.75 107 193.335938 112.03125 C 193.699219 115.460938 191.65625 119.328125 190.121094 121.878906 C 188.222656 120.929688 188.003906 119.472656 186.542969 118.304688 C 183.328125 115.753906 177.269531 114 172.082031 114.730469 C 170.695312 114.949219 168.796875 116.554688 167.335938 116.042969 C 166.019531 115.605469 165.070312 109.917969 165.4375 108.238281 C 166.019531 105.539062 168.796875 105.320312 169.597656 103.863281 C 167.042969 104.152344 165.144531 104.957031 163.171875 105.757812 C 161.347656 112.542969 160.03125 118.085938 157.695312 123.410156 C 155.503906 128.371094 151.339844 132.308594 147.835938 136.46875 C 140.675781 145.074219 134.90625 154.847656 137.609375 171.1875 C 139.433594 183.222656 145.789062 193.582031 153.238281 201.53125 Z M 121.90625 134.132812 C 121.542969 132.382812 118.546875 131.800781 116.941406 132.820312 C 114.75 134.207031 115.042969 138 115.40625 140.988281 C 116.722656 140.1875 118.546875 139.019531 120.738281 139.675781 C 120.664062 137.5625 122.273438 135.882812 121.90625 134.132812 Z M 116.574219 143.25 C 116.574219 147.117188 117.453125 150.179688 120.59375 149.890625 C 126.875 149.378906 120.59375 136.613281 116.574219 143.25 Z M 73.484375 166.007812 C 72.753906 170.167969 71 172.867188 73.484375 176.074219 C 78.230469 182.128906 92.839844 186.578125 101.601562 182.128906 C 102.554688 179.578125 103.285156 176.878906 104.453125 174.542969 C 100.945312 174.472656 98.390625 173.375 96.125 172.0625 C 103.136719 170.605469 110.804688 167.03125 117.597656 164.113281 C 119.496094 163.3125 122.785156 161.925781 123.660156 160.539062 C 125.414062 157.765625 124.023438 153.246094 124.023438 149.378906 C 121.324219 153.535156 114.75 150.835938 115.113281 145.585938 C 113.363281 147.699219 113.652344 152.296875 113.800781 155.796875 C 112.921875 154.921875 112.632812 153.464844 111.902344 152.371094 C 107.445312 153.316406 105.984375 157.257812 102.992188 159.589844 C 103.648438 154.921875 105.328125 151.347656 109.054688 149.742188 C 107.738281 146.972656 105.402344 145.292969 102.625 144.054688 C 103.210938 142.886719 105.765625 143.25 106.644531 143.835938 C 107.664062 142.011719 109.636719 140.113281 108.90625 137.195312 C 107.226562 135.519531 104.523438 134.863281 103.941406 132.089844 C 105.402344 131.582031 107.082031 132.527344 108.46875 132.675781 C 108.6875 129.027344 109.34375 125.816406 111.316406 123.921875 C 111.535156 128.664062 111.464844 135.226562 113.433594 138.875 C 112.558594 132.820312 117.964844 129.171875 122.34375 131.871094 C 124.316406 123.847656 120.59375 117.210938 113.070312 118.816406 C 110.222656 123.558594 106.058594 130.414062 100.507812 132.675781 C 98.535156 133.476562 95.03125 132.601562 92.691406 131.945312 C 95.25 129.902344 100.144531 129.320312 102.917969 126.839844 C 105.984375 124.140625 108.105469 119.035156 110.148438 115.242188 C 112.558594 110.792969 115.261719 107.070312 115.84375 102.332031 C 116.210938 99.195312 114.457031 94.308594 110.878906 96.277344 C 106.863281 98.539062 105.621094 104.371094 104.453125 109.550781 C 102.554688 117.867188 96.855469 130.707031 89.261719 133.476562 C 87.726562 134.0625 85.683594 134.207031 83.5625 133.84375 C 92.839844 127.421875 102.1875 117.867188 101.019531 101.746094 C 100.875 99.921875 100.363281 97.371094 98.902344 97.226562 C 96.78125 96.933594 94.445312 101.308594 93.789062 102.695312 C 92.621094 105.25 91.304688 108.09375 90.941406 110.5 C 90.648438 112.25 91.011719 114.148438 90.722656 115.824219 C 90.0625 120.492188 88.601562 124.652344 86.703125 127.933594 C 84.878906 131.214844 82.613281 134.789062 78.523438 135.738281 C 80.058594 133.476562 82.46875 130.777344 84.003906 127.203125 C 85.242188 124.359375 86.921875 119.472656 87.214844 116.042969 C 87.507812 112.90625 87.289062 108.824219 84.953125 107.289062 C 80.933594 110.0625 79.984375 116.335938 78.085938 121.734375 C 77.210938 124.359375 76.332031 126.984375 75.457031 129.683594 C 74.582031 132.382812 73.191406 135.007812 72.609375 137.488281 C 71.878906 140.625 71.660156 144.710938 71.660156 147.699219 C 71.660156 156.964844 76.773438 163.238281 80.789062 169.511719 C 78.160156 169.292969 75.96875 167.03125 73.484375 166.007812 Z M 73.484375 166.007812 " fill-opacity="1" fill-rule="nonzero"/></g></svg>