<?xml version="1.0" encoding="UTF-8" standalone="no"?>
<!DOCTYPE svg PUBLIC "-//W3C//DTD SVG 1.1//EN" "http://www.w3.org/Graphics/SVG/1.1/DTD/svg11.dtd">
<svg xmlns="http://www.w3.org/2000/svg" version="1.1" viewBox="0.00 0.00 26.00 26.00">
<path fill="#F1D302" stroke="#F1D302" fill-opacity="0.988" d="
  M 26.00 5.56
  L 26.00 6.27
  Q 23.45 13.35 17.84 8.78
  Q 17.49 8.50 17.08 8.68
  L 9.39 12.15
  Q 8.93 12.36 8.98 12.86
  L 9.10 14.10
  Q 9.16 14.68 9.70 14.89
  L 17.09 17.77
  Q 17.52 17.93 17.80 17.56
  C 20.62 13.83 25.09 15.54 26.00 19.81
  L 26.00 20.81
  C 24.36 26.50 17.23 25.74 16.76 19.50
  Q 16.72 19.04 16.29 18.87
  L 8.94 16.03
  Q 8.46 15.85 8.15 16.26
  C 5.54 19.79 1.13 18.34 0.00 14.44
  L 0.00 12.94
  C 1.15 8.96 5.00 8.03 8.08 10.78
  Q 8.48 11.13 8.95 10.91
  L 16.56 7.32
  Q 17.09 7.07 17.06 6.49
  C 16.71 0.09 24.81 -0.51 26.00 5.56
  Z
  M 24.65 5.90
  A 3.20 3.20 0.0 0 0 21.45 2.70
  A 3.20 3.20 0.0 0 0 18.25 5.90
  A 3.20 3.20 0.0 0 0 21.45 9.10
  A 3.20 3.20 0.0 0 0 24.65 5.90
  Z
  M 7.71 13.65
  A 3.16 3.16 0.0 0 0 4.55 10.49
  A 3.16 3.16 0.0 0 0 1.39 13.65
  A 3.16 3.16 0.0 0 0 4.55 16.81
  A 3.16 3.16 0.0 0 0 7.71 13.65
  Z
  M 24.63 20.16
  A 3.21 3.21 0.0 0 0 21.42 16.95
  A 3.21 3.21 0.0 0 0 18.21 20.16
  A 3.21 3.21 0.0 0 0 21.42 23.37
  A 3.21 3.21 0.0 0 0 24.63 20.16
  Z"
/>
</svg>
