<?xml version="1.0" encoding="UTF-8" standalone="no"?>
<!DOCTYPE svg PUBLIC "-//W3C//DTD SVG 1.1//EN" "http://www.w3.org/Graphics/SVG/1.1/DTD/svg11.dtd">
<svg xmlns="http://www.w3.org/2000/svg" version="1.1" viewBox="0.00 0.00 26.00 26.00">
<path fill="#F1D302" stroke="#F1D302" fill-opacity="0.996" d="
  M 26.00 8.31
  L 26.00 10.06
  C 24.35 16.20 18.96 20.26 14.11 24.07
  A 1.90 1.89 46.6 0 1 11.70 24.00
  C 7.34 20.17 1.42 16.16 0.00 10.19
  L 0.00 7.94
  C 1.64 1.28 7.61 -0.61 12.70 4.04
  Q 13.16 4.46 13.57 3.99
  C 18.33 -1.52 24.79 2.31 26.00 8.31
  Z
  M 12.47 6.41
  L 10.70 4.28
  Q 10.38 3.90 9.93 3.68
  C 6.33 1.94 2.88 3.50 1.87 7.35
  C 0.22 13.59 8.30 19.14 12.52 22.66
  A 0.67 0.67 0.0 0 0 13.36 22.68
  C 16.84 19.96 22.80 15.28 24.20 11.37
  C 25.69 7.23 22.13 1.66 17.16 3.12
  C 15.52 3.61 14.60 5.15 13.52 6.42
  Q 12.99 7.03 12.47 6.41
  Z"
/>
</svg>
